<svg width="280" height="275" viewBox="0 0 280 275" fill="none" xmlns="http://www.w3.org/2000/svg" xmlns:xlink="http://www.w3.org/1999/xlink">
<g clip-path="url(#clip0_38_902)">
<rect width="280" height="275" rx="10" fill="#050505"/>
<rect width="280" height="275" rx="10" fill="url(#pattern0_38_902)" style="mix-blend-mode:darken"/>
<rect width="280" height="275" rx="8" fill="#020202" fill-opacity="0.6"/>
<g opacity="0.6" filter="url(#filter0_f_38_902)">
<ellipse cx="66.5" cy="40.5" rx="143.5" ry="147.5" fill="#A632E2"/>
</g>
<rect x="91" y="41" width="198" height="33" rx="8" fill="url(#paint0_linear_38_902)"/>
<rect x="91.1" y="41.1" width="197.8" height="32.8" rx="7.9" stroke="#5FAFFF" stroke-opacity="0.33" stroke-width="0.2"/>
<rect x="111.5" y="50" width="15" height="15" rx="1.5" stroke="#A881E6"/>
<path d="M122.431 54.8421L118.099 59.174L115.616 56.6916L114.78 57.5275L118.099 60.8458L123.266 55.678L122.431 54.8421Z" fill="#0063BF"/>
<path d="M152.361 55L151.663 53.0176H148.934L148.235 55H147L149.656 47.832H150.955L153.606 55H152.361ZM151.36 52.0117L150.682 50.0586C150.656 49.974 150.618 49.8551 150.569 49.7021C150.521 49.5459 150.472 49.388 150.423 49.2285C150.374 49.0658 150.333 48.929 150.301 48.8184C150.268 48.9518 150.228 49.1016 150.179 49.2676C150.133 49.4303 150.088 49.5833 150.042 49.7266C150 49.8698 149.967 49.9805 149.944 50.0586L149.261 52.0117H151.36ZM158.064 53.457C158.064 53.8118 157.978 54.1113 157.806 54.3555C157.633 54.5996 157.381 54.7852 157.049 54.9121C156.72 55.0358 156.316 55.0977 155.838 55.0977C155.46 55.0977 155.135 55.07 154.861 55.0146C154.591 54.9626 154.336 54.8812 154.095 54.7705V53.7793C154.352 53.8997 154.64 54.0039 154.959 54.0918C155.281 54.1797 155.586 54.2236 155.872 54.2236C156.25 54.2236 156.521 54.165 156.688 54.0479C156.854 53.9274 156.937 53.7679 156.937 53.5693C156.937 53.4521 156.902 53.348 156.834 53.2568C156.769 53.1624 156.645 53.0664 156.463 52.9688C156.284 52.8678 156.02 52.7474 155.672 52.6074C155.33 52.4707 155.042 52.334 154.808 52.1973C154.573 52.0605 154.396 51.8962 154.275 51.7041C154.155 51.5088 154.095 51.2598 154.095 50.957C154.095 50.4785 154.284 50.1156 154.661 49.8682C155.042 49.6175 155.545 49.4922 156.17 49.4922C156.502 49.4922 156.814 49.5264 157.107 49.5947C157.404 49.6598 157.693 49.7559 157.977 49.8828L157.615 50.7471C157.371 50.6396 157.125 50.5518 156.878 50.4834C156.634 50.4118 156.385 50.376 156.131 50.376C155.835 50.376 155.608 50.4215 155.452 50.5127C155.299 50.6038 155.223 50.734 155.223 50.9033C155.223 51.0303 155.26 51.1377 155.335 51.2256C155.41 51.3135 155.538 51.4014 155.721 51.4893C155.906 51.5771 156.163 51.6862 156.492 51.8164C156.814 51.9401 157.093 52.0703 157.327 52.207C157.565 52.3405 157.747 52.5049 157.874 52.7002C158.001 52.8955 158.064 53.1478 158.064 53.457ZM162.938 53.457C162.938 53.8118 162.851 54.1113 162.679 54.3555C162.506 54.5996 162.254 54.7852 161.922 54.9121C161.593 55.0358 161.189 55.0977 160.711 55.0977C160.333 55.0977 160.008 55.07 159.734 55.0146C159.464 54.9626 159.209 54.8812 158.968 54.7705V53.7793C159.225 53.8997 159.513 54.0039 159.832 54.0918C160.154 54.1797 160.459 54.2236 160.745 54.2236C161.123 54.2236 161.395 54.165 161.561 54.0479C161.727 53.9274 161.81 53.7679 161.81 53.5693C161.81 53.4521 161.775 53.348 161.707 53.2568C161.642 53.1624 161.518 53.0664 161.336 52.9688C161.157 52.8678 160.893 52.7474 160.545 52.6074C160.203 52.4707 159.915 52.334 159.681 52.1973C159.446 52.0605 159.269 51.8962 159.148 51.7041C159.028 51.5088 158.968 51.2598 158.968 50.957C158.968 50.4785 159.157 50.1156 159.534 49.8682C159.915 49.6175 160.418 49.4922 161.043 49.4922C161.375 49.4922 161.688 49.5264 161.98 49.5947C162.277 49.6598 162.566 49.7559 162.85 49.8828L162.488 50.7471C162.244 50.6396 161.998 50.5518 161.751 50.4834C161.507 50.4118 161.258 50.376 161.004 50.376C160.708 50.376 160.481 50.4215 160.325 50.5127C160.172 50.6038 160.096 50.734 160.096 50.9033C160.096 51.0303 160.133 51.1377 160.208 51.2256C160.283 51.3135 160.411 51.4014 160.594 51.4893C160.779 51.5771 161.036 51.6862 161.365 51.8164C161.688 51.9401 161.966 52.0703 162.2 52.207C162.438 52.3405 162.62 52.5049 162.747 52.7002C162.874 52.8955 162.938 53.1478 162.938 53.457ZM165.325 49.5947V55H164.178V49.5947H165.325ZM164.759 47.5244C164.935 47.5244 165.086 47.5716 165.213 47.666C165.343 47.7604 165.408 47.9232 165.408 48.1543C165.408 48.3822 165.343 48.5449 165.213 48.6426C165.086 48.737 164.935 48.7842 164.759 48.7842C164.576 48.7842 164.422 48.737 164.295 48.6426C164.171 48.5449 164.109 48.3822 164.109 48.1543C164.109 47.9232 164.171 47.7604 164.295 47.666C164.422 47.5716 164.576 47.5244 164.759 47.5244ZM168.514 57.4023C167.781 57.4023 167.22 57.2705 166.829 57.0068C166.438 56.7432 166.243 56.3737 166.243 55.8984C166.243 55.5664 166.347 55.2848 166.556 55.0537C166.764 54.8258 167.062 54.668 167.449 54.5801C167.303 54.515 167.176 54.4141 167.068 54.2773C166.964 54.1374 166.912 53.9827 166.912 53.8135C166.912 53.6117 166.969 53.4391 167.083 53.2959C167.197 53.1527 167.368 53.0143 167.596 52.8809C167.312 52.7604 167.085 52.5651 166.912 52.2949C166.743 52.0215 166.658 51.7008 166.658 51.333C166.658 50.9424 166.741 50.6104 166.907 50.3369C167.073 50.0602 167.316 49.8503 167.635 49.707C167.954 49.5605 168.34 49.4873 168.792 49.4873C168.89 49.4873 168.995 49.4938 169.109 49.5068C169.227 49.5166 169.334 49.5296 169.432 49.5459C169.533 49.5589 169.609 49.5736 169.661 49.5898H171.531V50.2295L170.613 50.4004C170.701 50.5241 170.771 50.6657 170.823 50.8252C170.875 50.9814 170.901 51.1523 170.901 51.3379C170.901 51.8978 170.708 52.3389 170.32 52.6611C169.936 52.9801 169.406 53.1396 168.729 53.1396C168.566 53.1331 168.408 53.1201 168.255 53.1006C168.138 53.1722 168.048 53.252 167.986 53.3398C167.924 53.4245 167.894 53.5205 167.894 53.6279C167.894 53.7158 167.924 53.7874 167.986 53.8428C168.048 53.8949 168.139 53.9339 168.26 53.96C168.383 53.986 168.533 53.999 168.709 53.999H169.642C170.234 53.999 170.687 54.1243 170.999 54.375C171.312 54.6257 171.468 54.9935 171.468 55.4785C171.468 56.0938 171.214 56.5674 170.706 56.8994C170.198 57.2347 169.467 57.4023 168.514 57.4023ZM168.558 56.5967C168.958 56.5967 169.295 56.5576 169.568 56.4795C169.842 56.4014 170.049 56.2891 170.188 56.1426C170.328 55.9993 170.398 55.8285 170.398 55.6299C170.398 55.4541 170.354 55.319 170.267 55.2246C170.179 55.1302 170.047 55.0651 169.871 55.0293C169.695 54.9935 169.477 54.9756 169.217 54.9756H168.367C168.156 54.9756 167.968 55.0081 167.806 55.0732C167.643 55.1416 167.516 55.2393 167.425 55.3662C167.337 55.4932 167.293 55.6462 167.293 55.8252C167.293 56.0726 167.402 56.263 167.62 56.3965C167.841 56.5299 168.154 56.5967 168.558 56.5967ZM168.782 52.3877C169.118 52.3877 169.367 52.2965 169.529 52.1143C169.692 51.9287 169.773 51.6683 169.773 51.333C169.773 50.9684 169.689 50.695 169.52 50.5127C169.354 50.3304 169.106 50.2393 168.777 50.2393C168.455 50.2393 168.209 50.332 168.04 50.5176C167.874 50.7031 167.791 50.9782 167.791 51.3428C167.791 51.6715 167.874 51.9287 168.04 52.1143C168.209 52.2965 168.457 52.3877 168.782 52.3877ZM175.335 49.4922C175.944 49.4922 176.417 49.6501 176.756 49.9658C177.098 50.2783 177.269 50.7812 177.269 51.4746V55H176.121V51.6895C176.121 51.2695 176.035 50.9554 175.862 50.7471C175.69 50.5355 175.423 50.4297 175.062 50.4297C174.537 50.4297 174.173 50.5908 173.968 50.9131C173.766 51.2354 173.665 51.7025 173.665 52.3145V55H172.518V49.5947H173.411L173.572 50.3271H173.636C173.753 50.1383 173.898 49.9837 174.07 49.8633C174.246 49.7396 174.441 49.6468 174.656 49.585C174.874 49.5231 175.101 49.4922 175.335 49.4922ZM184.065 55H182.889V48.8574H180.799V47.8613H186.15V48.8574H184.065V55ZM189.246 49.4922C189.93 49.4922 190.446 49.6436 190.794 49.9463C191.146 50.249 191.321 50.721 191.321 51.3623V55H190.506L190.286 54.2334H190.247C190.094 54.4287 189.936 54.5898 189.773 54.7168C189.611 54.8438 189.422 54.9382 189.207 55C188.995 55.0651 188.737 55.0977 188.431 55.0977C188.108 55.0977 187.82 55.0391 187.566 54.9219C187.312 54.8014 187.112 54.6191 186.966 54.375C186.819 54.1309 186.746 53.8216 186.746 53.4473C186.746 52.8906 186.953 52.4723 187.366 52.1924C187.783 51.9124 188.411 51.7578 189.251 51.7285L190.188 51.6943V51.4111C190.188 51.0368 190.101 50.7699 189.925 50.6104C189.752 50.4508 189.508 50.3711 189.192 50.3711C188.922 50.3711 188.66 50.4102 188.406 50.4883C188.152 50.5664 187.905 50.6624 187.664 50.7764L187.293 49.9658C187.557 49.8258 187.856 49.7119 188.191 49.624C188.53 49.5361 188.882 49.4922 189.246 49.4922ZM190.184 52.417L189.485 52.4414C188.912 52.4609 188.51 52.5586 188.279 52.7344C188.048 52.9102 187.933 53.151 187.933 53.457C187.933 53.724 188.012 53.9193 188.172 54.043C188.331 54.1634 188.541 54.2236 188.802 54.2236C189.199 54.2236 189.528 54.1113 189.788 53.8867C190.052 53.6589 190.184 53.3252 190.184 52.8857V52.417ZM196.561 53.457C196.561 53.8118 196.474 54.1113 196.302 54.3555C196.129 54.5996 195.877 54.7852 195.545 54.9121C195.216 55.0358 194.812 55.0977 194.334 55.0977C193.956 55.0977 193.631 55.07 193.357 55.0146C193.087 54.9626 192.832 54.8812 192.591 54.7705V53.7793C192.848 53.8997 193.136 54.0039 193.455 54.0918C193.777 54.1797 194.082 54.2236 194.368 54.2236C194.746 54.2236 195.018 54.165 195.184 54.0479C195.35 53.9274 195.433 53.7679 195.433 53.5693C195.433 53.4521 195.398 53.348 195.33 53.2568C195.265 53.1624 195.141 53.0664 194.959 52.9688C194.78 52.8678 194.516 52.7474 194.168 52.6074C193.826 52.4707 193.538 52.334 193.304 52.1973C193.069 52.0605 192.892 51.8962 192.771 51.7041C192.651 51.5088 192.591 51.2598 192.591 50.957C192.591 50.4785 192.78 50.1156 193.157 49.8682C193.538 49.6175 194.041 49.4922 194.666 49.4922C194.998 49.4922 195.311 49.5264 195.604 49.5947C195.9 49.6598 196.189 49.7559 196.473 49.8828L196.111 50.7471C195.867 50.6396 195.621 50.5518 195.374 50.4834C195.13 50.4118 194.881 50.376 194.627 50.376C194.331 50.376 194.104 50.4215 193.948 50.5127C193.795 50.6038 193.719 50.734 193.719 50.9033C193.719 51.0303 193.756 51.1377 193.831 51.2256C193.906 51.3135 194.035 51.4014 194.217 51.4893C194.402 51.5771 194.66 51.6862 194.988 51.8164C195.311 51.9401 195.589 52.0703 195.823 52.207C196.061 52.3405 196.243 52.5049 196.37 52.7002C196.497 52.8955 196.561 53.1478 196.561 53.457ZM198.948 47.4023V51.0742C198.948 51.2402 198.942 51.4225 198.929 51.6211C198.916 51.8164 198.903 52.0003 198.89 52.1729H198.914C198.999 52.0589 199.1 51.9255 199.217 51.7725C199.337 51.6195 199.451 51.486 199.559 51.3721L201.209 49.5947H202.527L200.364 51.9189L202.669 55H201.321L199.593 52.627L198.948 53.1787V55H197.801V47.4023H198.948ZM212.586 51.4209C212.586 51.971 212.516 52.4723 212.376 52.9248C212.239 53.374 212.033 53.7614 211.756 54.0869C211.479 54.4092 211.132 54.6582 210.716 54.834C210.299 55.0098 209.811 55.0977 209.251 55.0977C208.681 55.0977 208.187 55.0098 207.767 54.834C207.35 54.6582 207.003 54.4076 206.727 54.082C206.453 53.7565 206.248 53.3675 206.111 52.915C205.975 52.4626 205.906 51.9613 205.906 51.4111C205.906 50.6755 206.027 50.0342 206.268 49.4873C206.512 48.9372 206.881 48.5107 207.376 48.208C207.874 47.902 208.502 47.749 209.261 47.749C210.003 47.749 210.62 47.9004 211.111 48.2031C211.603 48.5059 211.971 48.9323 212.215 49.4824C212.462 50.0293 212.586 50.6755 212.586 51.4209ZM207.137 51.4209C207.137 51.971 207.212 52.4479 207.361 52.8516C207.511 53.252 207.741 53.5612 208.05 53.7793C208.362 53.9941 208.763 54.1016 209.251 54.1016C209.743 54.1016 210.143 53.9941 210.452 53.7793C210.761 53.5612 210.989 53.252 211.136 52.8516C211.282 52.4479 211.355 51.971 211.355 51.4209C211.355 50.5843 211.188 49.93 210.853 49.458C210.521 48.9827 209.99 48.7451 209.261 48.7451C208.772 48.7451 208.37 48.8525 208.055 49.0674C207.742 49.2822 207.511 49.5898 207.361 49.9902C207.212 50.3874 207.137 50.8643 207.137 51.4209ZM218.421 54.9951L217.737 52.4805C217.705 52.3568 217.666 52.207 217.62 52.0312C217.575 51.8555 217.529 51.6748 217.483 51.4893C217.438 51.3005 217.396 51.1263 217.356 50.9668C217.321 50.8073 217.293 50.6836 217.273 50.5957H217.234C217.218 50.6836 217.192 50.8073 217.156 50.9668C217.12 51.1263 217.08 51.3005 217.034 51.4893C216.989 51.6781 216.943 51.862 216.897 52.041C216.855 52.2201 216.816 52.373 216.78 52.5L216.062 54.9951H214.803L213.289 49.5898H214.451L215.154 52.2754C215.2 52.4577 215.244 52.6546 215.286 52.8662C215.332 53.0778 215.371 53.2796 215.403 53.4717C215.436 53.6637 215.46 53.8216 215.477 53.9453H215.516C215.529 53.8574 215.547 53.7467 215.569 53.6133C215.592 53.4766 215.618 53.335 215.647 53.1885C215.677 53.0387 215.706 52.8988 215.735 52.7686C215.765 52.6351 215.792 52.5277 215.818 52.4463L216.648 49.5898H217.903L218.699 52.4463C218.735 52.57 218.774 52.7262 218.816 52.915C218.859 53.1006 218.896 53.2878 218.929 53.4766C218.965 53.6621 218.987 53.8167 218.997 53.9404H219.036C219.049 53.8298 219.072 53.68 219.104 53.4912C219.14 53.2992 219.181 53.0957 219.227 52.8809C219.272 52.6628 219.319 52.4609 219.368 52.2754L220.086 49.5898H221.229L219.705 54.9951H218.421ZM224.974 49.4922C225.582 49.4922 226.056 49.6501 226.395 49.9658C226.736 50.2783 226.907 50.7812 226.907 51.4746V55H225.76V51.6895C225.76 51.2695 225.674 50.9554 225.501 50.7471C225.328 50.5355 225.062 50.4297 224.7 50.4297C224.176 50.4297 223.812 50.5908 223.606 50.9131C223.405 51.2354 223.304 51.7025 223.304 52.3145V55H222.156V49.5947H223.05L223.211 50.3271H223.274C223.392 50.1383 223.536 49.9837 223.709 49.8633C223.885 49.7396 224.08 49.6468 224.295 49.585C224.513 49.5231 224.739 49.4922 224.974 49.4922ZM230.667 49.4922C231.149 49.4922 231.562 49.5915 231.907 49.79C232.252 49.9886 232.518 50.2702 232.703 50.6348C232.889 50.9993 232.981 51.4355 232.981 51.9434V52.5586H229.373C229.386 53.0827 229.526 53.4863 229.793 53.7695C230.063 54.0527 230.441 54.1943 230.926 54.1943C231.271 54.1943 231.58 54.1618 231.854 54.0967C232.13 54.0283 232.415 53.929 232.708 53.7988V54.7314C232.438 54.8584 232.163 54.9512 231.883 55.0098C231.603 55.0684 231.268 55.0977 230.877 55.0977C230.346 55.0977 229.879 54.9951 229.476 54.79C229.075 54.5817 228.761 54.2725 228.533 53.8623C228.309 53.4521 228.196 52.9427 228.196 52.334C228.196 51.7285 228.299 51.2142 228.504 50.791C228.709 50.3678 228.997 50.0456 229.368 49.8242C229.739 49.6029 230.172 49.4922 230.667 49.4922ZM230.667 50.3564C230.306 50.3564 230.013 50.4736 229.788 50.708C229.567 50.9424 229.437 51.2858 229.397 51.7383H231.858C231.855 51.4681 231.81 51.2288 231.722 51.0205C231.637 50.8122 231.507 50.6494 231.331 50.5322C231.159 50.415 230.937 50.3564 230.667 50.3564ZM237.015 49.4922C237.106 49.4922 237.205 49.4971 237.312 49.5068C237.42 49.5166 237.513 49.5296 237.591 49.5459L237.483 50.6201C237.415 50.6006 237.33 50.5859 237.229 50.5762C237.132 50.5664 237.044 50.5615 236.966 50.5615C236.761 50.5615 236.565 50.5957 236.38 50.6641C236.194 50.7292 236.03 50.8301 235.887 50.9668C235.743 51.1003 235.631 51.2679 235.55 51.4697C235.468 51.6715 235.428 51.9059 235.428 52.1729V55H234.275V49.5947H235.174L235.33 50.5469H235.384C235.491 50.3548 235.625 50.179 235.784 50.0195C235.944 49.86 236.126 49.7331 236.331 49.6387C236.539 49.541 236.767 49.4922 237.015 49.4922ZM242.225 53.457C242.225 53.8118 242.138 54.1113 241.966 54.3555C241.793 54.5996 241.541 54.7852 241.209 54.9121C240.88 55.0358 240.477 55.0977 239.998 55.0977C239.62 55.0977 239.295 55.07 239.021 55.0146C238.751 54.9626 238.496 54.8812 238.255 54.7705V53.7793C238.512 53.8997 238.8 54.0039 239.119 54.0918C239.441 54.1797 239.746 54.2236 240.032 54.2236C240.41 54.2236 240.682 54.165 240.848 54.0479C241.014 53.9274 241.097 53.7679 241.097 53.5693C241.097 53.4521 241.062 53.348 240.994 53.2568C240.929 53.1624 240.805 53.0664 240.623 52.9688C240.444 52.8678 240.18 52.7474 239.832 52.6074C239.49 52.4707 239.202 52.334 238.968 52.1973C238.733 52.0605 238.556 51.8962 238.436 51.7041C238.315 51.5088 238.255 51.2598 238.255 50.957C238.255 50.4785 238.444 50.1156 238.821 49.8682C239.202 49.6175 239.705 49.4922 240.33 49.4922C240.662 49.4922 240.975 49.5264 241.268 49.5947C241.564 49.6598 241.854 49.7559 242.137 49.8828L241.775 50.7471C241.531 50.6396 241.285 50.5518 241.038 50.4834C240.794 50.4118 240.545 50.376 240.291 50.376C239.995 50.376 239.769 50.4215 239.612 50.5127C239.459 50.6038 239.383 50.734 239.383 50.9033C239.383 51.0303 239.42 51.1377 239.495 51.2256C239.57 51.3135 239.699 51.4014 239.881 51.4893C240.066 51.5771 240.324 51.6862 240.652 51.8164C240.975 51.9401 241.253 52.0703 241.487 52.207C241.725 52.3405 241.907 52.5049 242.034 52.7002C242.161 52.8955 242.225 53.1478 242.225 53.457Z" fill="#FBF9FE"/>
<path d="M147.602 68V67.4886L149.523 65.3864C149.748 65.1402 149.934 64.9261 150.08 64.7443C150.225 64.5606 150.333 64.3883 150.403 64.2273C150.475 64.0644 150.511 63.8939 150.511 63.7159C150.511 63.5114 150.462 63.3343 150.364 63.1847C150.267 63.035 150.134 62.9195 149.966 62.8381C149.797 62.7566 149.608 62.7159 149.398 62.7159C149.174 62.7159 148.979 62.7623 148.812 62.8551C148.648 62.946 148.52 63.0739 148.429 63.2386C148.34 63.4034 148.295 63.5966 148.295 63.8182H147.625C147.625 63.4773 147.704 63.178 147.861 62.9205C148.018 62.6629 148.232 62.4621 148.503 62.3182C148.776 62.1742 149.081 62.1023 149.42 62.1023C149.761 62.1023 150.063 62.1742 150.327 62.3182C150.59 62.4621 150.796 62.6562 150.946 62.9006C151.096 63.1449 151.17 63.4167 151.17 63.7159C151.17 63.9299 151.132 64.1392 151.054 64.3438C150.978 64.5464 150.846 64.7727 150.656 65.0227C150.469 65.2708 150.208 65.5739 149.875 65.9318L148.568 67.3295V67.375H151.273V68H147.602Z" fill="#AFABB6"/>
<path fill-rule="evenodd" clip-rule="evenodd" d="M261.333 57.5C261.333 56.5796 262.08 55.8334 263 55.8334C263.921 55.8334 264.667 56.5796 264.667 57.5C264.667 58.4205 263.921 59.1667 263 59.1667C262.08 59.1667 261.333 58.4205 261.333 57.5Z" fill="#A881E6"/>
<path fill-rule="evenodd" clip-rule="evenodd" d="M261.333 51.6667C261.333 50.7462 262.08 50 263 50C263.921 50 264.667 50.7462 264.667 51.6667C264.667 52.5871 263.921 53.3333 263 53.3333C262.08 53.3333 261.333 52.5871 261.333 51.6667Z" fill="#A881E6"/>
<path fill-rule="evenodd" clip-rule="evenodd" d="M261.333 63.3333C261.333 62.4128 262.08 61.6666 263 61.6666C263.921 61.6666 264.667 62.4128 264.667 63.3333C264.667 64.2538 263.921 65 263 65C262.08 65 261.333 64.2538 261.333 63.3333Z" fill="#A881E6"/>
<rect x="91.1" y="82.1" width="197.8" height="32.8" rx="7.9" fill="url(#paint1_linear_38_902)"/>
<rect x="91.1" y="82.1" width="197.8" height="32.8" rx="7.9" stroke="#6E39E1" stroke-width="0.2"/>
<g opacity="0.9">
<rect x="111.5" y="91" width="15" height="15" rx="1.5" fill="#2F723D" stroke="#A881E6"/>
<rect x="111.5" y="91" width="15" height="15" rx="1.5" stroke="#2F723D"/>
<path d="M122.431 95.8421L118.099 100.174L115.616 97.6916L114.78 98.5275L118.099 101.846L123.266 96.678L122.431 95.8421Z" fill="#FBF9FE"/>
</g>
<g opacity="0.5">
<path d="M147.483 89.5085V88.7273H152.938V89.5085H150.651V96H149.77V89.5085H147.483ZM153.617 96V90.5455H154.426V91.3693H154.483C154.583 91.0994 154.762 90.8804 155.023 90.7124C155.283 90.5443 155.577 90.4602 155.904 90.4602C155.965 90.4602 156.042 90.4614 156.134 90.4638C156.227 90.4661 156.297 90.4697 156.344 90.4744V91.3267C156.316 91.3196 156.25 91.3089 156.149 91.2947C156.049 91.2782 155.944 91.2699 155.833 91.2699C155.567 91.2699 155.331 91.3255 155.122 91.4368C154.916 91.5457 154.753 91.6972 154.632 91.8913C154.514 92.0831 154.455 92.3021 154.455 92.5483V96H153.617ZM158.942 96.1278C158.597 96.1278 158.283 96.0627 158.001 95.9325C157.72 95.8 157.496 95.6094 157.33 95.3608C157.165 95.1098 157.082 94.8068 157.082 94.4517C157.082 94.1392 157.143 93.8859 157.266 93.6918C157.389 93.4953 157.554 93.3414 157.76 93.2301C157.966 93.1188 158.193 93.036 158.442 92.9815C158.693 92.9247 158.945 92.8797 159.198 92.8466C159.53 92.804 159.798 92.772 160.004 92.7507C160.213 92.727 160.364 92.688 160.459 92.6335C160.556 92.5791 160.604 92.4844 160.604 92.3494V92.321C160.604 91.9706 160.509 91.6984 160.317 91.5043C160.127 91.3101 159.84 91.2131 159.454 91.2131C159.054 91.2131 158.74 91.3007 158.513 91.4759C158.286 91.651 158.126 91.8381 158.033 92.0369L157.238 91.7528C157.38 91.4214 157.569 91.1634 157.806 90.9787C158.045 90.7917 158.306 90.6615 158.587 90.5881C158.871 90.5123 159.151 90.4744 159.425 90.4744C159.601 90.4744 159.802 90.4957 160.029 90.5384C160.259 90.5786 160.48 90.6626 160.693 90.7905C160.909 90.9183 161.087 91.1113 161.229 91.3693C161.371 91.6274 161.442 91.973 161.442 92.4062V96H160.604V95.2614H160.562C160.505 95.3797 160.41 95.5064 160.278 95.6413C160.145 95.7763 159.969 95.8911 159.749 95.9858C159.528 96.0805 159.26 96.1278 158.942 96.1278ZM159.07 95.375C159.402 95.375 159.681 95.3099 159.908 95.1797C160.138 95.0495 160.311 94.8814 160.427 94.6754C160.545 94.4695 160.604 94.2528 160.604 94.0256V93.2585C160.569 93.3011 160.491 93.3402 160.37 93.3757C160.252 93.4089 160.114 93.4384 159.958 93.4645C159.804 93.4882 159.654 93.5095 159.507 93.5284C159.363 93.545 159.246 93.5592 159.156 93.571C158.938 93.5994 158.734 93.6456 158.545 93.7095C158.358 93.7711 158.206 93.8646 158.09 93.9901C157.977 94.1132 157.92 94.2812 157.92 94.4943C157.92 94.7855 158.027 95.0057 158.243 95.1548C158.461 95.3016 158.737 95.375 159.07 95.375ZM165.188 96.1136C164.677 96.1136 164.236 95.9929 163.867 95.7514C163.498 95.5099 163.214 95.1773 163.015 94.7536C162.816 94.3298 162.716 93.8456 162.716 93.3011C162.716 92.7472 162.818 92.2583 163.022 91.8345C163.228 91.4084 163.514 91.0758 163.881 90.8366C164.251 90.5952 164.681 90.4744 165.174 90.4744C165.557 90.4744 165.903 90.5455 166.211 90.6875C166.519 90.8295 166.771 91.0284 166.967 91.2841C167.164 91.5398 167.286 91.8381 167.333 92.179H166.495C166.431 91.9304 166.289 91.7102 166.069 91.5185C165.851 91.3243 165.557 91.2273 165.188 91.2273C164.861 91.2273 164.575 91.3125 164.329 91.483C164.085 91.651 163.894 91.889 163.757 92.1967C163.622 92.5021 163.555 92.8608 163.555 93.2727C163.555 93.6941 163.621 94.0611 163.753 94.3736C163.888 94.6861 164.078 94.9287 164.322 95.1016C164.568 95.2744 164.857 95.3608 165.188 95.3608C165.406 95.3608 165.604 95.3229 165.781 95.2472C165.959 95.1714 166.109 95.0625 166.232 94.9205C166.355 94.7784 166.443 94.608 166.495 94.4091H167.333C167.286 94.7311 167.168 95.0211 166.981 95.2791C166.797 95.5348 166.552 95.7384 166.246 95.8899C165.943 96.0391 165.59 96.1136 165.188 96.1136ZM169.339 94.0114L169.325 92.9744H169.496L171.882 90.5455H172.919L170.376 93.1165H170.305L169.339 94.0114ZM168.558 96V88.7273H169.396V96H168.558ZM172.024 96L169.893 93.3011L170.49 92.7188L173.089 96H172.024ZM176.924 96V88.7273H179.381C179.952 88.7273 180.418 88.8303 180.78 89.0362C181.145 89.2398 181.415 89.5156 181.59 89.8636C181.765 90.2116 181.853 90.5999 181.853 91.0284C181.853 91.4569 181.765 91.8464 181.59 92.1967C181.417 92.5471 181.15 92.8265 180.787 93.0348C180.425 93.2408 179.961 93.3438 179.395 93.3438H177.634V92.5625H179.367C179.757 92.5625 180.071 92.495 180.308 92.3601C180.545 92.2251 180.716 92.0429 180.823 91.8132C180.932 91.5812 180.986 91.3196 180.986 91.0284C180.986 90.7372 180.932 90.4768 180.823 90.2472C180.716 90.0175 180.543 89.8376 180.304 89.7074C180.065 89.5748 179.748 89.5085 179.353 89.5085H177.804V96H176.924ZM183.158 96V90.5455H183.967V91.3693H184.024C184.124 91.0994 184.304 90.8804 184.564 90.7124C184.824 90.5443 185.118 90.4602 185.445 90.4602C185.506 90.4602 185.583 90.4614 185.675 90.4638C185.768 90.4661 185.838 90.4697 185.885 90.4744V91.3267C185.857 91.3196 185.791 91.3089 185.69 91.2947C185.59 91.2782 185.485 91.2699 185.374 91.2699C185.108 91.2699 184.872 91.3255 184.663 91.4368C184.457 91.5457 184.294 91.6972 184.173 91.8913C184.055 92.0831 183.996 92.3021 183.996 92.5483V96H183.158ZM188.928 96.1136C188.436 96.1136 188.004 95.9964 187.632 95.7621C187.263 95.5277 186.974 95.1998 186.766 94.7784C186.56 94.357 186.457 93.8646 186.457 93.3011C186.457 92.733 186.56 92.237 186.766 91.8132C186.974 91.3894 187.263 91.0604 187.632 90.826C188.004 90.5916 188.436 90.4744 188.928 90.4744C189.421 90.4744 189.852 90.5916 190.221 90.826C190.593 91.0604 190.881 91.3894 191.087 91.8132C191.296 92.237 191.4 92.733 191.4 93.3011C191.4 93.8646 191.296 94.357 191.087 94.7784C190.881 95.1998 190.593 95.5277 190.221 95.7621C189.852 95.9964 189.421 96.1136 188.928 96.1136ZM188.928 95.3608C189.302 95.3608 189.61 95.2649 189.852 95.0732C190.093 94.8814 190.272 94.6293 190.388 94.3168C190.504 94.0043 190.562 93.6657 190.562 93.3011C190.562 92.9366 190.504 92.5968 190.388 92.282C190.272 91.9671 190.093 91.7126 189.852 91.5185C189.61 91.3243 189.302 91.2273 188.928 91.2273C188.554 91.2273 188.246 91.3243 188.005 91.5185C187.763 91.7126 187.585 91.9671 187.469 92.282C187.353 92.5968 187.295 92.9366 187.295 93.3011C187.295 93.6657 187.353 94.0043 187.469 94.3168C187.585 94.6293 187.763 94.8814 188.005 95.0732C188.246 95.2649 188.554 95.3608 188.928 95.3608ZM194.881 98.1591C194.476 98.1591 194.128 98.107 193.837 98.0028C193.546 97.901 193.303 97.7661 193.109 97.598C192.917 97.4323 192.764 97.2547 192.651 97.0653L193.318 96.5966C193.394 96.696 193.49 96.8097 193.606 96.9375C193.722 97.0677 193.881 97.1802 194.082 97.2749C194.285 97.3719 194.552 97.4205 194.881 97.4205C195.321 97.4205 195.685 97.3139 195.971 97.1009C196.258 96.8878 196.401 96.554 196.401 96.0994V94.9915H196.33C196.268 95.0909 196.181 95.214 196.067 95.3608C195.956 95.5052 195.795 95.6342 195.584 95.7479C195.376 95.8591 195.094 95.9148 194.739 95.9148C194.298 95.9148 193.903 95.8106 193.553 95.6023C193.205 95.3939 192.929 95.0909 192.725 94.6932C192.524 94.2955 192.423 93.8125 192.423 93.2443C192.423 92.6856 192.522 92.1991 192.718 91.7848C192.915 91.3681 193.188 91.0462 193.539 90.8189C193.889 90.5893 194.294 90.4744 194.753 90.4744C195.108 90.4744 195.39 90.5336 195.598 90.652C195.809 90.768 195.97 90.9006 196.081 91.0497C196.195 91.1965 196.282 91.3172 196.344 91.4119H196.429V90.5455H197.239V96.1562C197.239 96.625 197.132 97.0062 196.919 97.2997C196.709 97.5956 196.424 97.8123 196.067 97.9496C195.712 98.0893 195.316 98.1591 194.881 98.1591ZM194.852 95.1619C195.189 95.1619 195.473 95.085 195.705 94.9311C195.937 94.7772 196.113 94.5559 196.234 94.267C196.355 93.9782 196.415 93.6326 196.415 93.2301C196.415 92.8371 196.356 92.4903 196.237 92.1896C196.119 91.889 195.944 91.6534 195.712 91.483C195.48 91.3125 195.193 91.2273 194.852 91.2273C194.497 91.2273 194.201 91.3172 193.965 91.4972C193.73 91.6771 193.554 91.9186 193.436 92.2216C193.32 92.5246 193.262 92.8608 193.262 93.2301C193.262 93.6089 193.321 93.9439 193.439 94.2351C193.56 94.5239 193.737 94.7512 193.972 94.9169C194.209 95.0803 194.502 95.1619 194.852 95.1619ZM198.773 96V90.5455H199.583V91.3693H199.639C199.739 91.0994 199.919 90.8804 200.179 90.7124C200.44 90.5443 200.733 90.4602 201.06 90.4602C201.121 90.4602 201.198 90.4614 201.291 90.4638C201.383 90.4661 201.453 90.4697 201.5 90.4744V91.3267C201.472 91.3196 201.407 91.3089 201.305 91.2947C201.205 91.2782 201.1 91.2699 200.989 91.2699C200.724 91.2699 200.487 91.3255 200.279 91.4368C200.073 91.5457 199.909 91.6972 199.789 91.8913C199.67 92.0831 199.611 92.3021 199.611 92.5483V96H198.773ZM204.615 96.1136C204.089 96.1136 203.636 95.9976 203.254 95.7656C202.876 95.5312 202.583 95.2045 202.377 94.7855C202.174 94.3641 202.072 93.8741 202.072 93.3153C202.072 92.7566 202.174 92.2642 202.377 91.8381C202.583 91.4096 202.87 91.0758 203.237 90.8366C203.606 90.5952 204.037 90.4744 204.529 90.4744C204.813 90.4744 205.094 90.5218 205.371 90.6165C205.648 90.7112 205.9 90.8651 206.127 91.0781C206.355 91.2888 206.536 91.5682 206.671 91.9162C206.806 92.2642 206.873 92.6927 206.873 93.2017V93.5568H202.669V92.8324H206.021C206.021 92.5246 205.959 92.25 205.836 92.0085C205.715 91.767 205.543 91.5765 205.318 91.4368C205.095 91.2971 204.832 91.2273 204.529 91.2273C204.195 91.2273 203.907 91.3101 203.663 91.4759C203.421 91.6392 203.235 91.8523 203.105 92.1151C202.975 92.3778 202.91 92.6596 202.91 92.9602V93.4432C202.91 93.8551 202.981 94.2043 203.123 94.4908C203.267 94.7749 203.468 94.9915 203.723 95.1406C203.979 95.2874 204.276 95.3608 204.615 95.3608C204.835 95.3608 205.034 95.33 205.211 95.2685C205.391 95.2045 205.546 95.1098 205.676 94.9844C205.807 94.8565 205.907 94.6979 205.978 94.5085L206.788 94.7358C206.703 95.0104 206.559 95.2519 206.358 95.4602C206.157 95.6662 205.908 95.8272 205.612 95.9432C205.316 96.0568 204.984 96.1136 204.615 96.1136ZM212.012 91.767L211.259 91.9801C211.211 91.8546 211.142 91.7327 211.049 91.6143C210.959 91.4936 210.836 91.3942 210.68 91.3161C210.524 91.2379 210.324 91.1989 210.08 91.1989C209.746 91.1989 209.468 91.2758 209.245 91.4297C209.025 91.5812 208.915 91.7741 208.915 92.0085C208.915 92.2169 208.991 92.3814 209.142 92.5021C209.294 92.6229 209.53 92.7235 209.852 92.804L210.662 93.0028C211.15 93.1212 211.513 93.3023 211.752 93.5462C211.991 93.7876 212.111 94.099 212.111 94.4801C212.111 94.7926 212.021 95.072 211.841 95.3182C211.664 95.5644 211.415 95.7585 211.095 95.9006C210.776 96.0426 210.404 96.1136 209.98 96.1136C209.424 96.1136 208.963 95.9929 208.599 95.7514C208.234 95.5099 208.003 95.1572 207.906 94.6932L208.702 94.4943C208.778 94.7879 208.921 95.008 209.132 95.1548C209.345 95.3016 209.623 95.375 209.966 95.375C210.357 95.375 210.667 95.2921 210.896 95.1264C211.128 94.9583 211.244 94.7571 211.244 94.5227C211.244 94.3333 211.178 94.1747 211.046 94.0469C210.913 93.9167 210.709 93.8196 210.435 93.7557L209.526 93.5426C209.026 93.4242 208.659 93.2408 208.425 92.9922C208.193 92.7412 208.077 92.4276 208.077 92.0511C208.077 91.7434 208.163 91.4711 208.336 91.2344C208.511 90.9976 208.749 90.8118 209.05 90.6768C209.353 90.5419 209.696 90.4744 210.08 90.4744C210.619 90.4744 211.043 90.5928 211.351 90.8295C211.661 91.0663 211.881 91.3788 212.012 91.767ZM217.236 91.767L216.483 91.9801C216.436 91.8546 216.366 91.7327 216.274 91.6143C216.184 91.4936 216.061 91.3942 215.904 91.3161C215.748 91.2379 215.548 91.1989 215.304 91.1989C214.971 91.1989 214.692 91.2758 214.47 91.4297C214.25 91.5812 214.14 91.7741 214.14 92.0085C214.14 92.2169 214.215 92.3814 214.367 92.5021C214.518 92.6229 214.755 92.7235 215.077 92.804L215.887 93.0028C216.374 93.1212 216.738 93.3023 216.977 93.5462C217.216 93.7876 217.336 94.099 217.336 94.4801C217.336 94.7926 217.246 95.072 217.066 95.3182C216.888 95.5644 216.64 95.7585 216.32 95.9006C216 96.0426 215.629 96.1136 215.205 96.1136C214.649 96.1136 214.188 95.9929 213.824 95.7514C213.459 95.5099 213.228 95.1572 213.131 94.6932L213.926 94.4943C214.002 94.7879 214.145 95.008 214.356 95.1548C214.569 95.3016 214.847 95.375 215.191 95.375C215.581 95.375 215.891 95.2921 216.121 95.1264C216.353 94.9583 216.469 94.7571 216.469 94.5227C216.469 94.3333 216.403 94.1747 216.27 94.0469C216.138 93.9167 215.934 93.8196 215.659 93.7557L214.75 93.5426C214.251 93.4242 213.884 93.2408 213.65 92.9922C213.417 92.7412 213.301 92.4276 213.301 92.0511C213.301 91.7434 213.388 91.4711 213.561 91.2344C213.736 90.9976 213.974 90.8118 214.275 90.6768C214.578 90.5419 214.921 90.4744 215.304 90.4744C215.844 90.4744 216.268 90.5928 216.576 90.8295C216.886 91.0663 217.106 91.3788 217.236 91.767Z" fill="#FBF9FE"/>
<path d="M147 92.7259H153.42V93.4077H147V92.7259ZM152.85 92.7259H156.571V93.4077H152.85V92.7259ZM156.57 92.7259H162.21V93.4077H156.57V92.7259ZM162.205 92.7259H173.231V93.4077H162.205V92.7259ZM173.23 92.7259H182.392V93.4077H173.23V92.7259ZM182.391 92.7259H186.112V93.4077H182.391V92.7259ZM185.945 92.7259H201.727V93.4077H185.945V92.7259ZM201.561 92.7259H207.384V93.4077H201.561V92.7259ZM207.381 92.7259H212.608V93.4077H207.381V92.7259ZM212.605 92.7259H217.833V93.4077H212.605V92.7259Z" fill="#FBF9FE"/>
<path d="M152.386 105H151.682C151.64 104.797 151.567 104.619 151.463 104.466C151.361 104.312 151.236 104.184 151.088 104.08C150.942 103.973 150.78 103.894 150.602 103.841C150.424 103.788 150.239 103.761 150.045 103.761C149.693 103.761 149.374 103.85 149.088 104.028C148.804 104.206 148.578 104.469 148.409 104.815C148.242 105.162 148.159 105.587 148.159 106.091C148.159 106.595 148.242 107.02 148.409 107.366C148.578 107.713 148.804 107.975 149.088 108.153C149.374 108.331 149.693 108.42 150.045 108.42C150.239 108.42 150.424 108.394 150.602 108.341C150.78 108.288 150.942 108.209 151.088 108.105C151.236 107.999 151.361 107.869 151.463 107.716C151.567 107.561 151.64 107.383 151.682 107.182H152.386C152.333 107.479 152.237 107.745 152.097 107.98C151.956 108.215 151.782 108.415 151.574 108.58C151.366 108.742 151.132 108.866 150.872 108.952C150.615 109.037 150.339 109.08 150.045 109.08C149.549 109.08 149.108 108.958 148.722 108.716C148.335 108.473 148.031 108.129 147.81 107.682C147.588 107.235 147.477 106.705 147.477 106.091C147.477 105.477 147.588 104.947 147.81 104.5C148.031 104.053 148.335 103.708 148.722 103.466C149.108 103.223 149.549 103.102 150.045 103.102C150.339 103.102 150.615 103.145 150.872 103.23C151.132 103.315 151.366 103.44 151.574 103.605C151.782 103.768 151.956 103.967 152.097 104.202C152.237 104.435 152.333 104.701 152.386 105ZM155.207 109.091C154.813 109.091 154.467 108.997 154.17 108.81C153.874 108.622 153.643 108.36 153.477 108.023C153.312 107.686 153.229 107.292 153.229 106.841C153.229 106.386 153.312 105.99 153.477 105.651C153.643 105.312 153.874 105.048 154.17 104.861C154.467 104.673 154.813 104.58 155.207 104.58C155.601 104.58 155.945 104.673 156.241 104.861C156.538 105.048 156.769 105.312 156.934 105.651C157.101 105.99 157.184 106.386 157.184 106.841C157.184 107.292 157.101 107.686 156.934 108.023C156.769 108.36 156.538 108.622 156.241 108.81C155.945 108.997 155.601 109.091 155.207 109.091ZM155.207 108.489C155.506 108.489 155.752 108.412 155.945 108.259C156.138 108.105 156.281 107.903 156.374 107.653C156.467 107.403 156.513 107.133 156.513 106.841C156.513 106.549 156.467 106.277 156.374 106.026C156.281 105.774 156.138 105.57 155.945 105.415C155.752 105.259 155.506 105.182 155.207 105.182C154.907 105.182 154.661 105.259 154.468 105.415C154.275 105.57 154.132 105.774 154.039 106.026C153.946 106.277 153.9 106.549 153.9 106.841C153.9 107.133 153.946 107.403 154.039 107.653C154.132 107.903 154.275 108.105 154.468 108.259C154.661 108.412 154.907 108.489 155.207 108.489ZM158.207 109V104.636H158.855V105.318H158.912C159.003 105.085 159.15 104.904 159.352 104.776C159.555 104.645 159.798 104.58 160.082 104.58C160.37 104.58 160.61 104.645 160.801 104.776C160.994 104.904 161.145 105.085 161.253 105.318H161.298C161.41 105.093 161.578 104.914 161.801 104.781C162.025 104.647 162.293 104.58 162.605 104.58C162.995 104.58 163.314 104.702 163.562 104.946C163.811 105.188 163.935 105.566 163.935 106.08V109H163.264V106.08C163.264 105.758 163.176 105.527 163 105.389C162.824 105.251 162.616 105.182 162.378 105.182C162.071 105.182 161.833 105.275 161.665 105.46C161.496 105.644 161.412 105.877 161.412 106.159V109H160.73V106.011C160.73 105.763 160.65 105.563 160.489 105.412C160.328 105.259 160.12 105.182 159.866 105.182C159.692 105.182 159.529 105.228 159.378 105.321C159.228 105.414 159.107 105.543 159.014 105.707C158.923 105.87 158.878 106.059 158.878 106.273V109H158.207ZM165.161 110.636V104.636H165.808V105.33H165.888C165.937 105.254 166.005 105.157 166.092 105.04C166.181 104.92 166.308 104.814 166.473 104.722C166.64 104.627 166.865 104.58 167.149 104.58C167.517 104.58 167.84 104.671 168.121 104.855C168.401 105.039 168.62 105.299 168.777 105.636C168.934 105.973 169.013 106.371 169.013 106.83C169.013 107.292 168.934 107.692 168.777 108.031C168.62 108.368 168.402 108.63 168.124 108.815C167.845 108.999 167.524 109.091 167.161 109.091C166.88 109.091 166.656 109.045 166.487 108.952C166.319 108.857 166.189 108.75 166.098 108.631C166.007 108.509 165.937 108.409 165.888 108.33H165.831V110.636H165.161ZM165.82 106.818C165.82 107.148 165.868 107.438 165.964 107.69C166.061 107.94 166.202 108.136 166.388 108.278C166.573 108.419 166.801 108.489 167.07 108.489C167.35 108.489 167.584 108.415 167.771 108.267C167.961 108.117 168.103 107.917 168.197 107.665C168.294 107.411 168.342 107.129 168.342 106.818C168.342 106.511 168.295 106.235 168.2 105.989C168.107 105.741 167.966 105.545 167.777 105.401C167.589 105.255 167.354 105.182 167.07 105.182C166.797 105.182 166.568 105.251 166.382 105.389C166.196 105.526 166.056 105.717 165.962 105.963C165.867 106.207 165.82 106.492 165.82 106.818ZM170.706 103.182V109H170.036V103.182H170.706ZM173.763 109.091C173.343 109.091 172.98 108.998 172.675 108.812C172.372 108.625 172.138 108.364 171.974 108.028C171.811 107.691 171.729 107.299 171.729 106.852C171.729 106.405 171.811 106.011 171.974 105.67C172.138 105.328 172.368 105.061 172.661 104.869C172.957 104.676 173.301 104.58 173.695 104.58C173.923 104.58 174.147 104.617 174.369 104.693C174.59 104.769 174.792 104.892 174.974 105.062C175.156 105.231 175.3 105.455 175.408 105.733C175.516 106.011 175.57 106.354 175.57 106.761V107.045H172.207V106.466H174.888C174.888 106.22 174.839 106 174.741 105.807C174.644 105.614 174.506 105.461 174.326 105.349C174.148 105.238 173.938 105.182 173.695 105.182C173.428 105.182 173.197 105.248 173.002 105.381C172.809 105.511 172.66 105.682 172.556 105.892C172.452 106.102 172.4 106.328 172.4 106.568V106.955C172.4 107.284 172.457 107.563 172.57 107.793C172.686 108.02 172.846 108.193 173.05 108.312C173.255 108.43 173.493 108.489 173.763 108.489C173.94 108.489 174.099 108.464 174.241 108.415C174.385 108.364 174.509 108.288 174.613 108.188C174.717 108.085 174.798 107.958 174.854 107.807L175.502 107.989C175.434 108.208 175.319 108.402 175.158 108.568C174.997 108.733 174.799 108.862 174.562 108.955C174.325 109.045 174.059 109.091 173.763 109.091ZM178.488 104.636V105.205H176.227V104.636H178.488ZM176.886 103.591H177.556V107.75C177.556 107.939 177.584 108.081 177.638 108.176C177.695 108.269 177.767 108.331 177.854 108.364C177.943 108.394 178.037 108.409 178.136 108.409C178.21 108.409 178.27 108.405 178.317 108.398C178.365 108.388 178.403 108.381 178.431 108.375L178.567 108.977C178.522 108.994 178.459 109.011 178.377 109.028C178.296 109.047 178.192 109.057 178.067 109.057C177.878 109.057 177.692 109.016 177.511 108.935C177.331 108.853 177.181 108.729 177.062 108.562C176.944 108.396 176.886 108.186 176.886 107.932V103.591ZM181.279 109.091C180.859 109.091 180.496 108.998 180.191 108.812C179.888 108.625 179.654 108.364 179.489 108.028C179.326 107.691 179.245 107.299 179.245 106.852C179.245 106.405 179.326 106.011 179.489 105.67C179.654 105.328 179.883 105.061 180.177 104.869C180.472 104.676 180.817 104.58 181.211 104.58C181.438 104.58 181.663 104.617 181.884 104.693C182.106 104.769 182.308 104.892 182.489 105.062C182.671 105.231 182.816 105.455 182.924 105.733C183.032 106.011 183.086 106.354 183.086 106.761V107.045H179.722V106.466H182.404C182.404 106.22 182.355 106 182.256 105.807C182.16 105.614 182.022 105.461 181.842 105.349C181.664 105.238 181.453 105.182 181.211 105.182C180.944 105.182 180.713 105.248 180.518 105.381C180.325 105.511 180.176 105.682 180.072 105.892C179.968 106.102 179.915 106.328 179.915 106.568V106.955C179.915 107.284 179.972 107.563 180.086 107.793C180.201 108.02 180.362 108.193 180.566 108.312C180.771 108.43 181.008 108.489 181.279 108.489C181.455 108.489 181.614 108.464 181.756 108.415C181.9 108.364 182.024 108.288 182.129 108.188C182.233 108.085 182.313 107.958 182.37 107.807L183.018 107.989C182.95 108.208 182.835 108.402 182.674 108.568C182.513 108.733 182.314 108.862 182.077 108.955C181.841 109.045 181.575 109.091 181.279 109.091ZM185.754 109.091C185.39 109.091 185.069 108.999 184.79 108.815C184.512 108.63 184.294 108.368 184.137 108.031C183.98 107.692 183.901 107.292 183.901 106.83C183.901 106.371 183.98 105.973 184.137 105.636C184.294 105.299 184.513 105.039 184.793 104.855C185.074 104.671 185.397 104.58 185.765 104.58C186.049 104.58 186.273 104.627 186.438 104.722C186.605 104.814 186.732 104.92 186.819 105.04C186.908 105.157 186.977 105.254 187.026 105.33H187.083V103.182H187.754V109H187.106V108.33H187.026C186.977 108.409 186.907 108.509 186.816 108.631C186.725 108.75 186.595 108.857 186.427 108.952C186.258 109.045 186.034 109.091 185.754 109.091ZM185.844 108.489C186.113 108.489 186.341 108.419 186.526 108.278C186.712 108.136 186.853 107.94 186.95 107.69C187.046 107.438 187.094 107.148 187.094 106.818C187.094 106.492 187.047 106.207 186.952 105.963C186.858 105.717 186.718 105.526 186.532 105.389C186.346 105.251 186.117 105.182 185.844 105.182C185.56 105.182 185.324 105.255 185.134 105.401C184.947 105.545 184.806 105.741 184.711 105.989C184.618 106.235 184.572 106.511 184.572 106.818C184.572 107.129 184.619 107.411 184.714 107.665C184.81 107.917 184.952 108.117 185.14 108.267C185.329 108.415 185.564 108.489 185.844 108.489Z" fill="#AFABB6"/>
</g>
<path fill-rule="evenodd" clip-rule="evenodd" d="M261.333 98.5C261.333 97.5796 262.08 96.8334 263 96.8334C263.921 96.8334 264.667 97.5796 264.667 98.5C264.667 99.4205 263.921 100.167 263 100.167C262.08 100.167 261.333 99.4205 261.333 98.5Z" fill="#A881E6"/>
<path fill-rule="evenodd" clip-rule="evenodd" d="M261.333 92.6667C261.333 91.7462 262.08 91 263 91C263.921 91 264.667 91.7462 264.667 92.6667C264.667 93.5871 263.921 94.3333 263 94.3333C262.08 94.3333 261.333 93.5871 261.333 92.6667Z" fill="#A881E6"/>
<path fill-rule="evenodd" clip-rule="evenodd" d="M261.333 104.333C261.333 103.413 262.08 102.667 263 102.667C263.921 102.667 264.667 103.413 264.667 104.333C264.667 105.254 263.921 106 263 106C262.08 106 261.333 105.254 261.333 104.333Z" fill="#A881E6"/>
<rect x="91.1" y="123.1" width="197.8" height="32.8" rx="7.9" fill="url(#paint2_linear_38_902)"/>
<rect x="91.1" y="123.1" width="197.8" height="32.8" rx="7.9" stroke="#6E39E1" stroke-width="0.2"/>
<rect x="111.5" y="132" width="15" height="15" rx="1.5" stroke="#A881E6"/>
<path d="M147.632 137V129.727H152.447V130.995H149.17V132.728H152.128V133.996H149.17V137H147.632ZM155.517 137.107C154.966 137.107 154.489 136.989 154.086 136.755C153.686 136.518 153.377 136.189 153.159 135.768C152.942 135.344 152.833 134.853 152.833 134.294C152.833 133.731 152.942 133.238 153.159 132.817C153.377 132.393 153.686 132.064 154.086 131.83C154.489 131.593 154.966 131.474 155.517 131.474C156.069 131.474 156.545 131.593 156.945 131.83C157.347 132.064 157.658 132.393 157.875 132.817C158.093 133.238 158.202 133.731 158.202 134.294C158.202 134.853 158.093 135.344 157.875 135.768C157.658 136.189 157.347 136.518 156.945 136.755C156.545 136.989 156.069 137.107 155.517 137.107ZM155.525 135.935C155.775 135.935 155.985 135.864 156.153 135.722C156.321 135.577 156.448 135.381 156.533 135.132C156.621 134.884 156.664 134.601 156.664 134.283C156.664 133.966 156.621 133.683 156.533 133.435C156.448 133.186 156.321 132.99 156.153 132.845C155.985 132.701 155.775 132.629 155.525 132.629C155.271 132.629 155.058 132.701 154.885 132.845C154.715 132.99 154.586 133.186 154.498 133.435C154.413 133.683 154.37 133.966 154.37 134.283C154.37 134.601 154.413 134.884 154.498 135.132C154.586 135.381 154.715 135.577 154.885 135.722C155.058 135.864 155.271 135.935 155.525 135.935ZM160.699 129.727V137H159.186V129.727H160.699ZM163.423 129.727V137H161.91V129.727H163.423ZM167.099 137.107C166.548 137.107 166.071 136.989 165.668 136.755C165.268 136.518 164.959 136.189 164.741 135.768C164.524 135.344 164.415 134.853 164.415 134.294C164.415 133.731 164.524 133.238 164.741 132.817C164.959 132.393 165.268 132.064 165.668 131.83C166.071 131.593 166.548 131.474 167.099 131.474C167.651 131.474 168.127 131.593 168.527 131.83C168.929 132.064 169.24 132.393 169.457 132.817C169.675 133.238 169.784 133.731 169.784 134.294C169.784 134.853 169.675 135.344 169.457 135.768C169.24 136.189 168.929 136.518 168.527 136.755C168.127 136.989 167.651 137.107 167.099 137.107ZM167.107 135.935C167.357 135.935 167.567 135.864 167.735 135.722C167.903 135.577 168.03 135.381 168.115 135.132C168.203 134.884 168.246 134.601 168.246 134.283C168.246 133.966 168.203 133.683 168.115 133.435C168.03 133.186 167.903 132.99 167.735 132.845C167.567 132.701 167.357 132.629 167.107 132.629C166.853 132.629 166.64 132.701 166.467 132.845C166.297 132.99 166.168 133.186 166.08 133.435C165.995 133.683 165.952 133.966 165.952 134.283C165.952 134.601 165.995 134.884 166.08 135.132C166.168 135.381 166.297 135.577 166.467 135.722C166.64 135.864 166.853 135.935 167.107 135.935ZM171.707 137L170.223 131.545H171.753L172.598 135.21H172.648L173.529 131.545H175.031L175.926 135.189H175.972L176.803 131.545H178.33L176.849 137H175.248L174.31 133.57H174.243L173.305 137H171.707ZM182.535 133.413V134.614H179.219V133.413H182.535ZM187.322 134.678V131.545H188.835V137H187.383V136.009H187.326C187.203 136.329 186.998 136.586 186.711 136.78C186.427 136.974 186.081 137.071 185.671 137.071C185.306 137.071 184.986 136.988 184.709 136.822C184.432 136.657 184.215 136.421 184.059 136.116C183.905 135.81 183.827 135.445 183.824 135.018V131.545H185.337V134.749C185.34 135.071 185.426 135.325 185.596 135.512C185.767 135.699 185.995 135.793 186.282 135.793C186.464 135.793 186.635 135.751 186.793 135.668C186.952 135.583 187.08 135.458 187.177 135.292C187.276 135.126 187.325 134.921 187.322 134.678ZM190.045 139.045V131.545H191.537V132.462H191.604C191.67 132.315 191.766 132.166 191.892 132.014C192.02 131.86 192.185 131.732 192.389 131.631C192.595 131.527 192.85 131.474 193.156 131.474C193.554 131.474 193.921 131.579 194.257 131.787C194.593 131.993 194.862 132.304 195.063 132.721C195.264 133.135 195.365 133.655 195.365 134.28C195.365 134.888 195.266 135.402 195.07 135.821C194.876 136.238 194.611 136.554 194.275 136.769C193.941 136.982 193.567 137.089 193.152 137.089C192.859 137.089 192.609 137.04 192.403 136.943C192.199 136.846 192.033 136.724 191.902 136.577C191.772 136.428 191.673 136.278 191.604 136.126H191.558V139.045H190.045ZM191.526 134.273C191.526 134.597 191.571 134.88 191.661 135.121C191.751 135.363 191.881 135.551 192.051 135.686C192.222 135.819 192.429 135.885 192.673 135.885C192.919 135.885 193.127 135.817 193.298 135.683C193.468 135.545 193.597 135.356 193.685 135.114C193.775 134.871 193.82 134.59 193.82 134.273C193.82 133.958 193.776 133.681 193.689 133.442C193.601 133.203 193.472 133.016 193.301 132.881C193.131 132.746 192.922 132.678 192.673 132.678C192.427 132.678 192.218 132.743 192.048 132.874C191.88 133.004 191.751 133.188 191.661 133.428C191.571 133.667 191.526 133.948 191.526 134.273ZM201.152 137.107C200.601 137.107 200.124 136.989 199.721 136.755C199.321 136.518 199.012 136.189 198.794 135.768C198.576 135.344 198.468 134.853 198.468 134.294C198.468 133.731 198.576 133.238 198.794 132.817C199.012 132.393 199.321 132.064 199.721 131.83C200.124 131.593 200.601 131.474 201.152 131.474C201.704 131.474 202.18 131.593 202.58 131.83C202.982 132.064 203.292 132.393 203.51 132.817C203.728 133.238 203.837 133.731 203.837 134.294C203.837 134.853 203.728 135.344 203.51 135.768C203.292 136.189 202.982 136.518 202.58 136.755C202.18 136.989 201.704 137.107 201.152 137.107ZM201.159 135.935C201.41 135.935 201.62 135.864 201.788 135.722C201.956 135.577 202.083 135.381 202.168 135.132C202.255 134.884 202.299 134.601 202.299 134.283C202.299 133.966 202.255 133.683 202.168 133.435C202.083 133.186 201.956 132.99 201.788 132.845C201.62 132.701 201.41 132.629 201.159 132.629C200.906 132.629 200.693 132.701 200.52 132.845C200.35 132.99 200.221 133.186 200.133 133.435C200.048 133.683 200.005 133.966 200.005 134.283C200.005 134.601 200.048 134.884 200.133 135.132C200.221 135.381 200.35 135.577 200.52 135.722C200.693 135.864 200.906 135.935 201.159 135.935ZM206.333 133.847V137H204.82V131.545H206.262V132.508H206.326C206.447 132.191 206.649 131.94 206.933 131.755C207.218 131.568 207.562 131.474 207.967 131.474C208.346 131.474 208.676 131.557 208.958 131.723C209.239 131.889 209.458 132.125 209.615 132.433C209.771 132.739 209.849 133.103 209.849 133.527V137H208.336V133.797C208.338 133.463 208.253 133.203 208.08 133.016C207.908 132.826 207.67 132.732 207.367 132.732C207.163 132.732 206.983 132.775 206.827 132.863C206.673 132.951 206.552 133.078 206.465 133.246C206.379 133.412 206.336 133.612 206.333 133.847ZM213.384 137V129.727H216.253C216.805 129.727 217.275 129.833 217.663 130.043C218.051 130.252 218.347 130.542 218.551 130.913C218.757 131.283 218.86 131.709 218.86 132.192C218.86 132.675 218.756 133.101 218.547 133.47C218.339 133.839 218.037 134.127 217.642 134.333C217.249 134.539 216.773 134.642 216.214 134.642H214.385V133.41H215.966C216.262 133.41 216.506 133.359 216.697 133.257C216.891 133.153 217.036 133.01 217.131 132.827C217.228 132.643 217.276 132.431 217.276 132.192C217.276 131.95 217.228 131.74 217.131 131.56C217.036 131.377 216.891 131.237 216.697 131.137C216.503 131.035 216.257 130.984 215.959 130.984H214.922V137H213.384ZM222.228 137.107C221.667 137.107 221.184 136.993 220.779 136.766C220.377 136.536 220.067 136.212 219.849 135.793C219.631 135.371 219.522 134.873 219.522 134.298C219.522 133.737 219.631 133.244 219.849 132.82C220.067 132.397 220.373 132.066 220.769 131.83C221.166 131.593 221.633 131.474 222.168 131.474C222.528 131.474 222.863 131.532 223.173 131.648C223.485 131.762 223.758 131.934 223.99 132.163C224.224 132.393 224.406 132.682 224.536 133.03C224.667 133.375 224.732 133.78 224.732 134.244V134.66H220.126V133.722H223.308C223.308 133.504 223.26 133.312 223.166 133.143C223.071 132.975 222.94 132.844 222.771 132.749C222.606 132.652 222.413 132.604 222.193 132.604C221.963 132.604 221.759 132.657 221.582 132.763C221.407 132.868 221.269 133.009 221.17 133.186C221.07 133.361 221.02 133.557 221.017 133.772V134.663C221.017 134.933 221.067 135.166 221.166 135.363C221.268 135.559 221.411 135.711 221.596 135.817C221.781 135.924 222 135.977 222.253 135.977C222.421 135.977 222.575 135.954 222.715 135.906C222.854 135.859 222.974 135.788 223.073 135.693C223.173 135.598 223.249 135.482 223.301 135.345L224.7 135.438C224.629 135.774 224.483 136.067 224.263 136.318C224.045 136.567 223.763 136.761 223.418 136.901C223.075 137.038 222.678 137.107 222.228 137.107ZM227.232 133.847V137H225.719V131.545H227.161V132.508H227.225C227.345 132.191 227.548 131.94 227.832 131.755C228.116 131.568 228.46 131.474 228.865 131.474C229.244 131.474 229.574 131.557 229.856 131.723C230.138 131.889 230.357 132.125 230.513 132.433C230.669 132.739 230.747 133.103 230.747 133.527V137H229.235V133.797C229.237 133.463 229.152 133.203 228.979 133.016C228.806 132.826 228.568 132.732 228.265 132.732C228.061 132.732 227.882 132.775 227.725 132.863C227.571 132.951 227.451 133.078 227.363 133.246C227.278 133.412 227.234 133.612 227.232 133.847ZM233.95 137.089C233.535 137.089 233.16 136.982 232.824 136.769C232.49 136.554 232.225 136.238 232.028 135.821C231.834 135.402 231.737 134.888 231.737 134.28C231.737 133.655 231.838 133.135 232.039 132.721C232.24 132.304 232.508 131.993 232.842 131.787C233.178 131.579 233.546 131.474 233.946 131.474C234.251 131.474 234.506 131.527 234.71 131.631C234.915 131.732 235.081 131.86 235.207 132.014C235.335 132.166 235.432 132.315 235.498 132.462H235.544V129.727H237.053V137H235.562V136.126H235.498C235.427 136.278 235.326 136.428 235.196 136.577C235.068 136.724 234.901 136.846 234.695 136.943C234.492 137.04 234.243 137.089 233.95 137.089ZM234.429 135.885C234.673 135.885 234.879 135.819 235.047 135.686C235.217 135.551 235.348 135.363 235.438 135.121C235.53 134.88 235.576 134.597 235.576 134.273C235.576 133.948 235.531 133.667 235.441 133.428C235.351 133.188 235.221 133.004 235.05 132.874C234.88 132.743 234.673 132.678 234.429 132.678C234.18 132.678 233.971 132.746 233.8 132.881C233.63 133.016 233.501 133.203 233.413 133.442C233.326 133.681 233.282 133.958 233.282 134.273C233.282 134.59 233.326 134.871 233.413 135.114C233.503 135.356 233.632 135.545 233.8 135.683C233.971 135.817 234.18 135.885 234.429 135.885ZM238.297 137V131.545H239.81V137H238.297ZM239.057 130.842C238.832 130.842 238.639 130.768 238.478 130.619C238.32 130.467 238.24 130.286 238.24 130.075C238.24 129.867 238.32 129.688 238.478 129.539C238.639 129.388 238.832 129.312 239.057 129.312C239.282 129.312 239.474 129.388 239.632 129.539C239.793 129.688 239.874 129.867 239.874 130.075C239.874 130.286 239.793 130.467 239.632 130.619C239.474 130.768 239.282 130.842 239.057 130.842ZM242.534 133.847V137H241.022V131.545H242.463V132.508H242.527C242.648 132.191 242.85 131.94 243.135 131.755C243.419 131.568 243.763 131.474 244.168 131.474C244.547 131.474 244.877 131.557 245.159 131.723C245.44 131.889 245.659 132.125 245.816 132.433C245.972 132.739 246.05 133.103 246.05 133.527V137H244.537V133.797C244.54 133.463 244.454 133.203 244.282 133.016C244.109 132.826 243.871 132.732 243.568 132.732C243.364 132.732 243.184 132.775 243.028 132.863C242.874 132.951 242.753 133.078 242.666 133.246C242.581 133.412 242.537 133.612 242.534 133.847ZM249.7 139.159C249.21 139.159 248.789 139.092 248.439 138.957C248.091 138.824 247.814 138.643 247.608 138.413C247.402 138.184 247.268 137.926 247.207 137.639L248.606 137.451C248.649 137.56 248.716 137.662 248.808 137.756C248.901 137.851 249.023 137.927 249.174 137.984C249.328 138.043 249.515 138.072 249.735 138.072C250.064 138.072 250.335 137.992 250.548 137.831C250.764 137.672 250.872 137.406 250.872 137.032V136.034H250.808C250.741 136.186 250.642 136.329 250.509 136.464C250.377 136.599 250.206 136.709 249.998 136.794C249.79 136.879 249.541 136.922 249.252 136.922C248.843 136.922 248.47 136.827 248.134 136.638C247.8 136.446 247.534 136.154 247.335 135.761C247.138 135.365 247.04 134.866 247.04 134.262C247.04 133.644 247.141 133.128 247.342 132.714C247.543 132.299 247.811 131.989 248.144 131.783C248.481 131.577 248.849 131.474 249.249 131.474C249.554 131.474 249.81 131.527 250.016 131.631C250.222 131.732 250.387 131.86 250.513 132.014C250.641 132.166 250.739 132.315 250.808 132.462H250.865V131.545H252.367V137.053C252.367 137.517 252.253 137.906 252.026 138.218C251.798 138.531 251.484 138.765 251.081 138.921C250.681 139.08 250.221 139.159 249.7 139.159ZM249.732 135.786C249.976 135.786 250.182 135.725 250.35 135.604C250.52 135.481 250.65 135.306 250.74 135.079C250.833 134.849 250.879 134.575 250.879 134.255C250.879 133.935 250.834 133.658 250.744 133.424C250.654 133.187 250.524 133.004 250.353 132.874C250.183 132.743 249.976 132.678 249.732 132.678C249.483 132.678 249.274 132.746 249.103 132.881C248.933 133.013 248.804 133.198 248.716 133.435C248.628 133.671 248.585 133.945 248.585 134.255C248.585 134.57 248.628 134.842 248.716 135.072C248.806 135.299 248.935 135.475 249.103 135.601C249.274 135.724 249.483 135.786 249.732 135.786Z" fill="#FBF9FE"/>
<path d="M149.42 150.08C149.087 150.08 148.787 150.013 148.52 149.881C148.253 149.748 148.039 149.566 147.878 149.335C147.717 149.104 147.629 148.841 147.614 148.545H148.295C148.322 148.809 148.441 149.027 148.653 149.199C148.867 149.369 149.123 149.455 149.42 149.455C149.659 149.455 149.871 149.399 150.057 149.287C150.244 149.175 150.391 149.022 150.497 148.827C150.605 148.63 150.659 148.407 150.659 148.159C150.659 147.905 150.603 147.679 150.491 147.48C150.382 147.279 150.23 147.121 150.037 147.006C149.844 146.89 149.623 146.831 149.375 146.83C149.197 146.828 149.014 146.855 148.827 146.912C148.639 146.967 148.485 147.038 148.364 147.125L147.705 147.045L148.057 144.182H151.08V144.807H148.648L148.443 146.523H148.477C148.597 146.428 148.746 146.349 148.926 146.287C149.106 146.224 149.294 146.193 149.489 146.193C149.845 146.193 150.162 146.278 150.44 146.449C150.721 146.617 150.94 146.848 151.099 147.142C151.26 147.436 151.341 147.771 151.341 148.148C151.341 148.519 151.258 148.85 151.091 149.142C150.926 149.432 150.699 149.661 150.409 149.83C150.119 149.996 149.79 150.08 149.42 150.08Z" fill="#AFABB6"/>
<path fill-rule="evenodd" clip-rule="evenodd" d="M261.333 139.5C261.333 138.58 262.08 137.833 263 137.833C263.921 137.833 264.667 138.58 264.667 139.5C264.667 140.421 263.921 141.167 263 141.167C262.08 141.167 261.333 140.421 261.333 139.5Z" fill="#A881E6"/>
<path fill-rule="evenodd" clip-rule="evenodd" d="M261.333 133.667C261.333 132.746 262.08 132 263 132C263.921 132 264.667 132.746 264.667 133.667C264.667 134.587 263.921 135.333 263 135.333C262.08 135.333 261.333 134.587 261.333 133.667Z" fill="#A881E6"/>
<path fill-rule="evenodd" clip-rule="evenodd" d="M261.333 145.333C261.333 144.413 262.08 143.667 263 143.667C263.921 143.667 264.667 144.413 264.667 145.333C264.667 146.254 263.921 147 263 147C262.08 147 261.333 146.254 261.333 145.333Z" fill="#A881E6"/>
<rect x="91.1" y="164.1" width="197.8" height="32.8" rx="7.9" fill="#17171A"/>
<rect x="91.1" y="164.1" width="197.8" height="32.8" rx="7.9" stroke="#6E39E1" stroke-width="0.2"/>
<rect x="111.5" y="173" width="15" height="15" rx="1.5" stroke="#A881E6"/>
<path d="M153.543 170.861V175.48C153.543 175.979 153.437 176.424 153.226 176.818C153.017 177.212 152.701 177.525 152.278 177.756C151.855 177.984 151.323 178.098 150.682 178.098C149.767 178.098 149.07 177.858 148.592 177.38C148.117 176.898 147.879 176.258 147.879 175.461V170.861H149.051V175.358C149.051 175.954 149.191 176.394 149.471 176.677C149.751 176.96 150.169 177.102 150.726 177.102C151.11 177.102 151.422 177.035 151.663 176.901C151.907 176.765 152.086 176.566 152.2 176.306C152.317 176.042 152.376 175.725 152.376 175.354V170.861H153.543ZM158.025 172.492C158.667 172.492 159.181 172.727 159.568 173.195C159.959 173.664 160.154 174.361 160.154 175.285C160.154 175.897 160.063 176.413 159.881 176.833C159.702 177.25 159.45 177.565 159.124 177.78C158.802 177.992 158.426 178.098 157.996 178.098C157.723 178.098 157.485 178.062 157.283 177.99C157.081 177.919 156.909 177.826 156.766 177.712C156.622 177.595 156.502 177.468 156.404 177.331H156.336C156.352 177.461 156.367 177.606 156.38 177.766C156.396 177.922 156.404 178.065 156.404 178.195V180.397H155.252V172.595H156.189L156.351 173.342H156.404C156.505 173.189 156.627 173.047 156.771 172.917C156.917 172.787 157.093 172.684 157.298 172.609C157.506 172.531 157.749 172.492 158.025 172.492ZM157.718 173.43C157.402 173.43 157.148 173.493 156.956 173.62C156.767 173.744 156.629 173.931 156.541 174.182C156.456 174.432 156.411 174.746 156.404 175.124V175.285C156.404 175.686 156.445 176.026 156.526 176.306C156.611 176.582 156.749 176.794 156.941 176.94C157.137 177.084 157.4 177.155 157.732 177.155C158.012 177.155 158.243 177.079 158.426 176.926C158.611 176.773 158.75 176.555 158.841 176.271C158.932 175.988 158.978 175.655 158.978 175.271C158.978 174.688 158.873 174.235 158.665 173.913C158.46 173.591 158.144 173.43 157.718 173.43ZM163.299 178.098C162.654 178.098 162.137 177.863 161.746 177.395C161.359 176.923 161.165 176.228 161.165 175.31C161.165 174.382 161.362 173.68 161.756 173.205C162.153 172.73 162.675 172.492 163.323 172.492C163.597 172.492 163.836 172.53 164.041 172.604C164.246 172.676 164.422 172.774 164.568 172.897C164.718 173.021 164.845 173.16 164.949 173.312H165.003C164.987 173.212 164.967 173.067 164.944 172.878C164.925 172.686 164.915 172.508 164.915 172.346V170.402H166.067V178H165.169L164.964 177.263H164.915C164.817 177.419 164.694 177.561 164.544 177.688C164.397 177.811 164.222 177.91 164.017 177.985C163.815 178.06 163.576 178.098 163.299 178.098ZM163.621 177.165C164.113 177.165 164.459 177.023 164.661 176.74C164.863 176.457 164.967 176.032 164.974 175.466V175.314C164.974 174.709 164.876 174.245 164.681 173.923C164.485 173.597 164.129 173.435 163.611 173.435C163.198 173.435 162.882 173.602 162.664 173.938C162.449 174.27 162.342 174.733 162.342 175.329C162.342 175.925 162.449 176.381 162.664 176.696C162.882 177.009 163.201 177.165 163.621 177.165ZM169.832 172.492C170.516 172.492 171.032 172.644 171.38 172.946C171.731 173.249 171.907 173.721 171.907 174.362V178H171.092L170.872 177.233H170.833C170.68 177.429 170.522 177.59 170.359 177.717C170.197 177.844 170.008 177.938 169.793 178C169.581 178.065 169.323 178.098 169.017 178.098C168.694 178.098 168.406 178.039 168.152 177.922C167.898 177.801 167.698 177.619 167.552 177.375C167.405 177.131 167.332 176.822 167.332 176.447C167.332 175.891 167.539 175.472 167.952 175.192C168.369 174.912 168.997 174.758 169.837 174.729L170.774 174.694V174.411C170.774 174.037 170.687 173.77 170.511 173.61C170.338 173.451 170.094 173.371 169.778 173.371C169.508 173.371 169.246 173.41 168.992 173.488C168.738 173.566 168.491 173.662 168.25 173.776L167.879 172.966C168.143 172.826 168.442 172.712 168.777 172.624C169.116 172.536 169.467 172.492 169.832 172.492ZM170.77 175.417L170.071 175.441C169.498 175.461 169.096 175.559 168.865 175.734C168.634 175.91 168.519 176.151 168.519 176.457C168.519 176.724 168.598 176.919 168.758 177.043C168.917 177.163 169.127 177.224 169.388 177.224C169.785 177.224 170.114 177.111 170.374 176.887C170.638 176.659 170.77 176.325 170.77 175.886V175.417ZM175.525 177.17C175.675 177.17 175.823 177.157 175.97 177.131C176.116 177.102 176.25 177.067 176.37 177.028V177.897C176.243 177.953 176.079 178 175.877 178.039C175.675 178.078 175.465 178.098 175.247 178.098C174.941 178.098 174.666 178.047 174.422 177.946C174.178 177.842 173.984 177.665 173.841 177.414C173.698 177.163 173.626 176.817 173.626 176.374V173.469H172.889V172.956L173.68 172.551L174.056 171.394H174.778V172.595H176.326V173.469H174.778V176.359C174.778 176.633 174.847 176.836 174.983 176.97C175.12 177.103 175.301 177.17 175.525 177.17ZM179.622 172.492C180.104 172.492 180.517 172.591 180.862 172.79C181.207 172.989 181.473 173.27 181.658 173.635C181.844 173.999 181.937 174.436 181.937 174.943V175.559H178.328C178.341 176.083 178.481 176.486 178.748 176.77C179.018 177.053 179.396 177.194 179.881 177.194C180.226 177.194 180.535 177.162 180.809 177.097C181.085 177.028 181.37 176.929 181.663 176.799V177.731C181.393 177.858 181.118 177.951 180.838 178.01C180.558 178.068 180.223 178.098 179.832 178.098C179.301 178.098 178.834 177.995 178.431 177.79C178.03 177.582 177.716 177.272 177.488 176.862C177.264 176.452 177.151 175.943 177.151 175.334C177.151 174.729 177.254 174.214 177.459 173.791C177.664 173.368 177.952 173.046 178.323 172.824C178.694 172.603 179.127 172.492 179.622 172.492ZM179.622 173.356C179.261 173.356 178.968 173.474 178.743 173.708C178.522 173.942 178.392 174.286 178.353 174.738H180.813C180.81 174.468 180.765 174.229 180.677 174.021C180.592 173.812 180.462 173.649 180.286 173.532C180.114 173.415 179.892 173.356 179.622 173.356ZM190.066 176.057C190.066 176.48 189.962 176.844 189.754 177.15C189.549 177.456 189.253 177.691 188.865 177.854C188.481 178.016 188.022 178.098 187.488 178.098C187.228 178.098 186.979 178.083 186.741 178.054C186.504 178.024 186.279 177.982 186.067 177.927C185.859 177.868 185.669 177.798 185.496 177.717V176.613C185.786 176.74 186.11 176.856 186.468 176.96C186.826 177.061 187.19 177.111 187.562 177.111C187.864 177.111 188.115 177.072 188.313 176.994C188.515 176.913 188.665 176.799 188.763 176.652C188.86 176.503 188.909 176.328 188.909 176.13C188.909 175.918 188.852 175.739 188.738 175.593C188.624 175.446 188.452 175.313 188.221 175.192C187.993 175.069 187.706 174.937 187.361 174.797C187.127 174.702 186.902 174.595 186.688 174.475C186.476 174.354 186.287 174.213 186.121 174.05C185.955 173.887 185.823 173.695 185.726 173.474C185.631 173.249 185.584 172.985 185.584 172.683C185.584 172.279 185.68 171.934 185.872 171.647C186.067 171.361 186.341 171.141 186.692 170.988C187.047 170.835 187.461 170.759 187.933 170.759C188.307 170.759 188.659 170.798 188.987 170.876C189.319 170.954 189.645 171.065 189.964 171.208L189.593 172.15C189.3 172.03 189.015 171.934 188.738 171.862C188.465 171.791 188.185 171.755 187.898 171.755C187.651 171.755 187.441 171.792 187.269 171.867C187.096 171.942 186.964 172.048 186.873 172.185C186.785 172.318 186.741 172.478 186.741 172.663C186.741 172.871 186.792 173.047 186.893 173.19C186.997 173.33 187.156 173.459 187.371 173.576C187.589 173.693 187.869 173.824 188.211 173.967C188.605 174.13 188.938 174.3 189.212 174.479C189.489 174.659 189.7 174.873 189.847 175.124C189.993 175.371 190.066 175.682 190.066 176.057ZM193.338 177.17C193.488 177.17 193.636 177.157 193.782 177.131C193.929 177.102 194.062 177.067 194.183 177.028V177.897C194.056 177.953 193.891 178 193.689 178.039C193.488 178.078 193.278 178.098 193.06 178.098C192.754 178.098 192.479 178.047 192.234 177.946C191.99 177.842 191.797 177.665 191.653 177.414C191.51 177.163 191.438 176.817 191.438 176.374V173.469H190.701V172.956L191.492 172.551L191.868 171.394H192.591V172.595H194.139V173.469H192.591V176.359C192.591 176.633 192.659 176.836 192.796 176.97C192.933 177.103 193.113 177.17 193.338 177.17ZM197.4 172.492C198.084 172.492 198.6 172.644 198.948 172.946C199.3 173.249 199.476 173.721 199.476 174.362V178H198.66L198.44 177.233H198.401C198.248 177.429 198.09 177.59 197.928 177.717C197.765 177.844 197.576 177.938 197.361 178C197.15 178.065 196.891 178.098 196.585 178.098C196.263 178.098 195.975 178.039 195.721 177.922C195.467 177.801 195.267 177.619 195.12 177.375C194.974 177.131 194.9 176.822 194.9 176.447C194.9 175.891 195.107 175.472 195.521 175.192C195.937 174.912 196.565 174.758 197.405 174.729L198.343 174.694V174.411C198.343 174.037 198.255 173.77 198.079 173.61C197.907 173.451 197.662 173.371 197.347 173.371C197.076 173.371 196.814 173.41 196.561 173.488C196.307 173.566 196.059 173.662 195.818 173.776L195.447 172.966C195.711 172.826 196.01 172.712 196.346 172.624C196.684 172.536 197.036 172.492 197.4 172.492ZM198.338 175.417L197.64 175.441C197.067 175.461 196.665 175.559 196.434 175.734C196.202 175.91 196.087 176.151 196.087 176.457C196.087 176.724 196.167 176.919 196.326 177.043C196.486 177.163 196.696 177.224 196.956 177.224C197.353 177.224 197.682 177.111 197.942 176.887C198.206 176.659 198.338 176.325 198.338 175.886V175.417ZM202.229 170.402V174.074C202.229 174.24 202.223 174.423 202.21 174.621C202.197 174.816 202.184 175 202.171 175.173H202.195C202.28 175.059 202.381 174.925 202.498 174.772C202.618 174.619 202.732 174.486 202.84 174.372L204.49 172.595H205.809L203.646 174.919L205.95 178H204.603L202.874 175.627L202.229 176.179V178H201.082V170.402H202.229ZM208.968 172.492C209.45 172.492 209.863 172.591 210.208 172.79C210.553 172.989 210.818 173.27 211.004 173.635C211.189 173.999 211.282 174.436 211.282 174.943V175.559H207.674C207.687 176.083 207.827 176.486 208.094 176.77C208.364 177.053 208.742 177.194 209.227 177.194C209.572 177.194 209.881 177.162 210.154 177.097C210.431 177.028 210.716 176.929 211.009 176.799V177.731C210.739 177.858 210.464 177.951 210.184 178.01C209.904 178.068 209.568 178.098 209.178 178.098C208.647 178.098 208.18 177.995 207.776 177.79C207.376 177.582 207.062 177.272 206.834 176.862C206.609 176.452 206.497 175.943 206.497 175.334C206.497 174.729 206.6 174.214 206.805 173.791C207.01 173.368 207.298 173.046 207.669 172.824C208.04 172.603 208.473 172.492 208.968 172.492ZM208.968 173.356C208.606 173.356 208.313 173.474 208.089 173.708C207.868 173.942 207.737 174.286 207.698 174.738H210.159C210.156 174.468 210.11 174.229 210.022 174.021C209.938 173.812 209.808 173.649 209.632 173.532C209.459 173.415 209.238 173.356 208.968 173.356ZM213.724 170.402V172.312C213.724 172.51 213.717 172.704 213.704 172.893C213.694 173.081 213.683 173.228 213.67 173.332H213.733C213.847 173.143 213.987 172.989 214.153 172.868C214.319 172.744 214.505 172.652 214.71 172.59C214.918 172.528 215.14 172.497 215.374 172.497C215.787 172.497 216.139 172.567 216.429 172.707C216.718 172.844 216.94 173.057 217.093 173.347C217.249 173.636 217.327 174.012 217.327 174.475V178H216.18V174.689C216.18 174.27 216.093 173.955 215.921 173.747C215.748 173.535 215.481 173.43 215.12 173.43C214.772 173.43 214.495 173.503 214.29 173.649C214.088 173.793 213.943 174.006 213.855 174.289C213.768 174.569 213.724 174.911 213.724 175.314V178H212.576V170.402H213.724ZM223.719 175.285C223.719 175.734 223.66 176.133 223.543 176.481C223.426 176.83 223.255 177.124 223.03 177.365C222.806 177.603 222.535 177.785 222.22 177.912C221.904 178.036 221.548 178.098 221.15 178.098C220.779 178.098 220.439 178.036 220.13 177.912C219.821 177.785 219.552 177.603 219.324 177.365C219.1 177.124 218.925 176.83 218.802 176.481C218.678 176.133 218.616 175.734 218.616 175.285C218.616 174.689 218.719 174.185 218.924 173.771C219.132 173.355 219.428 173.037 219.812 172.819C220.197 172.601 220.654 172.492 221.185 172.492C221.683 172.492 222.122 172.601 222.503 172.819C222.884 173.037 223.182 173.355 223.396 173.771C223.611 174.188 223.719 174.693 223.719 175.285ZM219.798 175.285C219.798 175.679 219.845 176.016 219.939 176.296C220.037 176.576 220.187 176.791 220.389 176.94C220.59 177.087 220.851 177.16 221.17 177.16C221.489 177.16 221.749 177.087 221.951 176.94C222.153 176.791 222.301 176.576 222.396 176.296C222.49 176.016 222.537 175.679 222.537 175.285C222.537 174.891 222.49 174.558 222.396 174.284C222.301 174.007 222.153 173.798 221.951 173.654C221.749 173.508 221.487 173.435 221.165 173.435C220.69 173.435 220.343 173.594 220.125 173.913C219.907 174.232 219.798 174.689 219.798 175.285ZM226.189 178H225.037V170.402H226.189V178ZM229.646 178.098C229.002 178.098 228.484 177.863 228.094 177.395C227.706 176.923 227.513 176.228 227.513 175.31C227.513 174.382 227.71 173.68 228.104 173.205C228.501 172.73 229.023 172.492 229.671 172.492C229.944 172.492 230.184 172.53 230.389 172.604C230.594 172.676 230.77 172.774 230.916 172.897C231.066 173.021 231.193 173.16 231.297 173.312H231.351C231.334 173.212 231.315 173.067 231.292 172.878C231.272 172.686 231.263 172.508 231.263 172.346V170.402H232.415V178H231.517L231.312 177.263H231.263C231.165 177.419 231.041 177.561 230.892 177.688C230.745 177.811 230.569 177.91 230.364 177.985C230.162 178.06 229.923 178.098 229.646 178.098ZM229.969 177.165C230.46 177.165 230.807 177.023 231.009 176.74C231.211 176.457 231.315 176.032 231.321 175.466V175.314C231.321 174.709 231.224 174.245 231.028 173.923C230.833 173.597 230.477 173.435 229.959 173.435C229.546 173.435 229.23 173.602 229.012 173.938C228.797 174.27 228.689 174.733 228.689 175.329C228.689 175.925 228.797 176.381 229.012 176.696C229.23 177.009 229.549 177.165 229.969 177.165ZM236.214 172.492C236.696 172.492 237.109 172.591 237.454 172.79C237.799 172.989 238.064 173.27 238.25 173.635C238.436 173.999 238.528 174.436 238.528 174.943V175.559H234.92C234.933 176.083 235.073 176.486 235.34 176.77C235.61 177.053 235.988 177.194 236.473 177.194C236.818 177.194 237.127 177.162 237.4 177.097C237.677 177.028 237.962 176.929 238.255 176.799V177.731C237.985 177.858 237.71 177.951 237.43 178.01C237.15 178.068 236.814 178.098 236.424 178.098C235.893 178.098 235.426 177.995 235.022 177.79C234.622 177.582 234.308 177.272 234.08 176.862C233.855 176.452 233.743 175.943 233.743 175.334C233.743 174.729 233.846 174.214 234.051 173.791C234.256 173.368 234.544 173.046 234.915 172.824C235.286 172.603 235.719 172.492 236.214 172.492ZM236.214 173.356C235.853 173.356 235.56 173.474 235.335 173.708C235.114 173.942 234.983 174.286 234.944 174.738H237.405C237.402 174.468 237.356 174.229 237.269 174.021C237.184 173.812 237.054 173.649 236.878 173.532C236.705 173.415 236.484 173.356 236.214 173.356ZM242.562 172.492C242.653 172.492 242.752 172.497 242.859 172.507C242.967 172.517 243.06 172.53 243.138 172.546L243.03 173.62C242.962 173.601 242.877 173.586 242.776 173.576C242.679 173.566 242.591 173.562 242.513 173.562C242.308 173.562 242.112 173.596 241.927 173.664C241.741 173.729 241.577 173.83 241.434 173.967C241.29 174.1 241.178 174.268 241.097 174.47C241.015 174.672 240.975 174.906 240.975 175.173V178H239.822V172.595H240.721L240.877 173.547H240.931C241.038 173.355 241.172 173.179 241.331 173.02C241.491 172.86 241.673 172.733 241.878 172.639C242.086 172.541 242.314 172.492 242.562 172.492ZM247.771 176.457C247.771 176.812 247.685 177.111 247.513 177.355C247.34 177.6 247.088 177.785 246.756 177.912C246.427 178.036 246.023 178.098 245.545 178.098C245.167 178.098 244.842 178.07 244.568 178.015C244.298 177.963 244.043 177.881 243.802 177.771V176.779C244.059 176.9 244.347 177.004 244.666 177.092C244.988 177.18 245.293 177.224 245.579 177.224C245.957 177.224 246.229 177.165 246.395 177.048C246.561 176.927 246.644 176.768 246.644 176.569C246.644 176.452 246.609 176.348 246.541 176.257C246.476 176.162 246.352 176.066 246.17 175.969C245.991 175.868 245.727 175.747 245.379 175.607C245.037 175.471 244.749 175.334 244.515 175.197C244.28 175.061 244.103 174.896 243.982 174.704C243.862 174.509 243.802 174.26 243.802 173.957C243.802 173.479 243.991 173.116 244.368 172.868C244.749 172.618 245.252 172.492 245.877 172.492C246.209 172.492 246.521 172.526 246.814 172.595C247.111 172.66 247.4 172.756 247.684 172.883L247.322 173.747C247.078 173.64 246.832 173.552 246.585 173.483C246.341 173.412 246.092 173.376 245.838 173.376C245.542 173.376 245.315 173.422 245.159 173.513C245.006 173.604 244.93 173.734 244.93 173.903C244.93 174.03 244.967 174.138 245.042 174.226C245.117 174.313 245.245 174.401 245.428 174.489C245.613 174.577 245.87 174.686 246.199 174.816C246.521 174.94 246.8 175.07 247.034 175.207C247.272 175.34 247.454 175.505 247.581 175.7C247.708 175.896 247.771 176.148 247.771 176.457Z" fill="#FBF9FE"/>
<path d="M147.705 191V185.182H149.67C150.127 185.182 150.5 185.264 150.79 185.429C151.081 185.592 151.297 185.812 151.438 186.091C151.578 186.369 151.648 186.68 151.648 187.023C151.648 187.366 151.578 187.677 151.438 187.957C151.299 188.238 151.085 188.461 150.795 188.628C150.506 188.793 150.134 188.875 149.682 188.875H148.273V188.25H149.659C149.972 188.25 150.223 188.196 150.412 188.088C150.601 187.98 150.739 187.834 150.824 187.651C150.911 187.465 150.955 187.256 150.955 187.023C150.955 186.79 150.911 186.581 150.824 186.398C150.739 186.214 150.6 186.07 150.409 185.966C150.218 185.86 149.964 185.807 149.648 185.807H148.409V191H147.705ZM152.692 191V186.636H153.339V187.295H153.385C153.464 187.08 153.608 186.904 153.817 186.77C154.025 186.635 154.26 186.568 154.521 186.568C154.571 186.568 154.632 186.569 154.706 186.571C154.78 186.573 154.836 186.576 154.874 186.58V187.261C154.851 187.256 154.799 187.247 154.717 187.236C154.638 187.223 154.554 187.216 154.464 187.216C154.252 187.216 154.063 187.26 153.896 187.349C153.732 187.437 153.601 187.558 153.504 187.713C153.41 187.866 153.362 188.042 153.362 188.239V191H152.692ZM155.668 191V186.636H156.339V191H155.668ZM156.009 185.909C155.879 185.909 155.766 185.865 155.671 185.776C155.578 185.687 155.532 185.58 155.532 185.455C155.532 185.33 155.578 185.223 155.671 185.134C155.766 185.045 155.879 185 156.009 185C156.14 185 156.252 185.045 156.344 185.134C156.439 185.223 156.487 185.33 156.487 185.455C156.487 185.58 156.439 185.687 156.344 185.776C156.252 185.865 156.14 185.909 156.009 185.909ZM159.339 191.091C158.946 191.091 158.6 190.997 158.303 190.81C158.007 190.622 157.776 190.36 157.609 190.023C157.445 189.686 157.362 189.292 157.362 188.841C157.362 188.386 157.445 187.99 157.609 187.651C157.776 187.312 158.007 187.048 158.303 186.861C158.6 186.673 158.946 186.58 159.339 186.58C159.733 186.58 160.078 186.673 160.374 186.861C160.671 187.048 160.902 187.312 161.067 187.651C161.233 187.99 161.317 188.386 161.317 188.841C161.317 189.292 161.233 189.686 161.067 190.023C160.902 190.36 160.671 190.622 160.374 190.81C160.078 190.997 159.733 191.091 159.339 191.091ZM159.339 190.489C159.639 190.489 159.885 190.412 160.078 190.259C160.271 190.105 160.414 189.903 160.507 189.653C160.6 189.403 160.646 189.133 160.646 188.841C160.646 188.549 160.6 188.277 160.507 188.026C160.414 187.774 160.271 187.57 160.078 187.415C159.885 187.259 159.639 187.182 159.339 187.182C159.04 187.182 158.794 187.259 158.601 187.415C158.408 187.57 158.265 187.774 158.172 188.026C158.079 188.277 158.033 188.549 158.033 188.841C158.033 189.133 158.079 189.403 158.172 189.653C158.265 189.903 158.408 190.105 158.601 190.259C158.794 190.412 159.04 190.489 159.339 190.489ZM162.34 191V186.636H162.988V187.295H163.033C163.113 187.08 163.257 186.904 163.465 186.77C163.674 186.635 163.908 186.568 164.17 186.568C164.219 186.568 164.281 186.569 164.354 186.571C164.428 186.573 164.484 186.576 164.522 186.58V187.261C164.499 187.256 164.447 187.247 164.366 187.236C164.286 187.223 164.202 187.216 164.113 187.216C163.901 187.216 163.711 187.26 163.545 187.349C163.38 187.437 163.249 187.558 163.153 187.713C163.058 187.866 163.011 188.042 163.011 188.239V191H162.34ZM165.317 191V186.636H165.987V191H165.317ZM165.658 185.909C165.527 185.909 165.414 185.865 165.32 185.776C165.227 185.687 165.18 185.58 165.18 185.455C165.18 185.33 165.227 185.223 165.32 185.134C165.414 185.045 165.527 185 165.658 185C165.788 185 165.9 185.045 165.993 185.134C166.088 185.223 166.135 185.33 166.135 185.455C166.135 185.58 166.088 185.687 165.993 185.776C165.9 185.865 165.788 185.909 165.658 185.909ZM169.113 186.636V187.205H166.852V186.636H169.113ZM167.511 185.591H168.181V189.75C168.181 189.939 168.209 190.081 168.263 190.176C168.32 190.269 168.392 190.331 168.479 190.364C168.568 190.394 168.662 190.409 168.761 190.409C168.835 190.409 168.895 190.405 168.942 190.398C168.99 190.388 169.028 190.381 169.056 190.375L169.192 190.977C169.147 190.994 169.084 191.011 169.002 191.028C168.921 191.047 168.817 191.057 168.692 191.057C168.503 191.057 168.317 191.016 168.136 190.935C167.956 190.853 167.806 190.729 167.687 190.562C167.569 190.396 167.511 190.186 167.511 189.932V185.591ZM170.553 192.636C170.44 192.636 170.338 192.627 170.249 192.608C170.16 192.591 170.099 192.574 170.065 192.557L170.235 191.966C170.398 192.008 170.542 192.023 170.667 192.011C170.792 192 170.903 191.944 170.999 191.844C171.098 191.745 171.188 191.585 171.269 191.364L171.394 191.023L169.781 186.636H170.508L171.712 190.114H171.758L172.962 186.636H173.69L171.837 191.636C171.754 191.862 171.651 192.048 171.528 192.196C171.405 192.346 171.262 192.456 171.099 192.528C170.938 192.6 170.756 192.636 170.553 192.636Z" fill="#AFABB6"/>
<path fill-rule="evenodd" clip-rule="evenodd" d="M261.333 180.5C261.333 179.58 262.08 178.833 263 178.833C263.921 178.833 264.667 179.58 264.667 180.5C264.667 181.421 263.921 182.167 263 182.167C262.08 182.167 261.333 181.421 261.333 180.5Z" fill="#A881E6"/>
<path fill-rule="evenodd" clip-rule="evenodd" d="M261.333 174.667C261.333 173.746 262.08 173 263 173C263.921 173 264.667 173.746 264.667 174.667C264.667 175.587 263.921 176.333 263 176.333C262.08 176.333 261.333 175.587 261.333 174.667Z" fill="#A881E6"/>
<path fill-rule="evenodd" clip-rule="evenodd" d="M261.333 186.333C261.333 185.413 262.08 184.667 263 184.667C263.921 184.667 264.667 185.413 264.667 186.333C264.667 187.254 263.921 188 263 188C262.08 188 261.333 187.254 261.333 186.333Z" fill="#A881E6"/>
<g filter="url(#filter1_f_38_902)">
<rect x="4" y="132" width="276" height="145" fill="url(#paint3_linear_38_902)" fill-opacity="0.81"/>
</g>
</g>
<rect x="0.2" y="0.2" width="279.6" height="274.6" rx="11.8" stroke="#5FAFFF" stroke-opacity="0.33" stroke-width="0.4"/>
<defs>
<pattern id="pattern0_38_902" patternContentUnits="objectBoundingBox" width="3.65714" height="3.72364">
<use xlink:href="#image0_38_902" transform="scale(0.00357143 0.00363636)"/>
</pattern>
<filter id="filter0_f_38_902" x="-489" y="-519" width="1111" height="1119" filterUnits="userSpaceOnUse" color-interpolation-filters="sRGB">
<feFlood flood-opacity="0" result="BackgroundImageFix"/>
<feBlend mode="normal" in="SourceGraphic" in2="BackgroundImageFix" result="shape"/>
<feGaussianBlur stdDeviation="206" result="effect1_foregroundBlur_38_902"/>
</filter>
<filter id="filter1_f_38_902" x="-48" y="80" width="380" height="249" filterUnits="userSpaceOnUse" color-interpolation-filters="sRGB">
<feFlood flood-opacity="0" result="BackgroundImageFix"/>
<feBlend mode="normal" in="SourceGraphic" in2="BackgroundImageFix" result="shape"/>
<feGaussianBlur stdDeviation="26" result="effect1_foregroundBlur_38_902"/>
</filter>
<linearGradient id="paint0_linear_38_902" x1="107" y1="45.2308" x2="279.987" y2="92.7208" gradientUnits="userSpaceOnUse">
<stop offset="0.16974" stop-color="#331E3E" stop-opacity="0.47"/>
<stop offset="1" stop-color="#17181A"/>
</linearGradient>
<linearGradient id="paint1_linear_38_902" x1="91" y1="82" x2="285.294" y2="133.607" gradientUnits="userSpaceOnUse">
<stop stop-color="#331E3E" stop-opacity="0.48"/>
<stop offset="1" stop-color="#1B1B1B"/>
</linearGradient>
<linearGradient id="paint2_linear_38_902" x1="168.5" y1="145.423" x2="302.692" y2="175.159" gradientUnits="userSpaceOnUse">
<stop stop-color="#331E3E"/>
<stop offset="1" stop-color="#1B1B1B"/>
</linearGradient>
<linearGradient id="paint3_linear_38_902" x1="52" y1="44.5" x2="310.941" y2="154.488" gradientUnits="userSpaceOnUse">
<stop stop-color="#020202" stop-opacity="0"/>
<stop offset="0.559617" stop-color="#020202" stop-opacity="0.974958"/>
<stop offset="0.687894" stop-color="#020202"/>
<stop offset="1" stop-color="#020202"/>
</linearGradient>
<clipPath id="clip0_38_902">
<rect width="280" height="275" rx="12" fill="white"/>
</clipPath>
</defs>
</svg>
